<?xml version="1.0" encoding="UTF-8"?>
<svg version="1.1" xmlns="http://www.w3.org/2000/svg" width="1080" height="1080">
<path d="M0 0 C1.13308594 0.00064453 2.26617188 0.00128906 3.43359375 0.00195312 C9.7422436 0.03484875 15.87091682 0.35760573 22.125 1.1875 C22.125 1.8475 22.125 2.5075 22.125 3.1875 C23.25035156 3.17009766 23.25035156 3.17009766 24.3984375 3.15234375 C30.99500955 3.09418757 37.60143651 3.07972507 44.125 4.1875 C44.455 4.5175 44.785 4.8475 45.125 5.1875 C46.85222728 5.41134382 48.58196007 5.61589969 50.3125 5.8125 C61.2626879 7.61590772 70.11207793 12.94003331 78.5 19.9375 C79.06581787 20.40921631 79.63163574 20.88093262 80.21459961 21.36694336 C81.7734375 22.734375 81.7734375 22.734375 84.125 25.1875 C84.125 26.1775 84.125 27.1675 84.125 28.1875 C84.785 28.1875 85.445 28.1875 86.125 28.1875 C87.2810727 30.3909806 88.42484721 32.59953156 89.5625 34.8125 C89.88798828 35.42996094 90.21347656 36.04742187 90.54882812 36.68359375 C96.36098406 48.06822908 96.03184289 66.08434238 92.125 78.1875 C89.03279462 87.22712229 85.44328515 96.21007227 80.125 104.1875 C79.465 104.1875 78.805 104.1875 78.125 104.1875 C77.795 106.1675 77.465 108.1475 77.125 110.1875 C76.465 110.1875 75.805 110.1875 75.125 110.1875 C74.90070312 110.83332031 74.67640625 111.47914063 74.4453125 112.14453125 C73.3427452 114.68565529 72.16075937 116.89580922 70.7421875 119.26171875 C70.29746094 120.01259766 69.85273437 120.76347656 69.39453125 121.53710938 C68.47134667 123.08480116 67.53396614 124.62412055 66.58203125 126.15429688 C63.264507 131.83664527 62.14729661 136.61618388 63.125 143.1875 C67.07749332 151.4086861 75.45434782 156.2534071 82.85717773 161.11645508 C84.31365575 162.09134367 85.72415544 163.13423341 87.125 164.1875 C87.125 164.8475 87.125 165.5075 87.125 166.1875 C88.445 166.5175 89.765 166.8475 91.125 167.1875 C91.125 167.8475 91.125 168.5075 91.125 169.1875 C91.95451172 169.56068359 91.95451172 169.56068359 92.80078125 169.94140625 C95.55432625 171.41767659 97.86512716 173.18373085 100.3125 175.125 C101.19292969 175.81464844 102.07335937 176.50429688 102.98046875 177.21484375 C105.125 179.1875 105.125 179.1875 106.125 182.1875 C106.888125 182.47625 107.65125 182.765 108.4375 183.0625 C111.83981645 184.48672549 112.86313161 186.2793835 115.125 189.1875 C117.21545889 191.05642664 119.35058608 192.85490752 121.515625 194.63671875 C122.04671875 195.14847656 122.5778125 195.66023437 123.125 196.1875 C123.125 196.8475 123.125 197.5075 123.125 198.1875 C123.7025 198.249375 124.28 198.31125 124.875 198.375 C128.04948483 199.52134174 129.25348575 201.44706842 131.125 204.1875 C131.125 204.8475 131.125 205.5075 131.125 206.1875 C132.115 206.5175 133.105 206.8475 134.125 207.1875 C135.9921875 209.26171875 135.9921875 209.26171875 138 211.875 C138.69867187 212.77347656 139.39734375 213.67195312 140.1171875 214.59765625 C141.11105469 215.87962891 141.11105469 215.87962891 142.125 217.1875 C143.77394121 219.20331091 145.44742969 221.19538526 147.125 223.1875 C150.09517694 222.55939827 150.09517694 222.55939827 153.125 221.1875 C154.44981546 218.79220331 154.44981546 218.79220331 155.125 216.1875 C155.785 215.1975 156.445 214.2075 157.125 213.1875 C157.785 213.1875 158.445 213.1875 159.125 213.1875 C159.30264893 212.08172607 159.30264893 212.08172607 159.48388672 210.95361328 C160.1198096 208.20989423 160.96434115 206.34459188 162.3828125 203.9296875 C162.84051025 203.14376221 163.29820801 202.35783691 163.76977539 201.5480957 C164.50248657 200.31772583 164.50248657 200.31772583 165.25 199.0625 C165.99334595 197.80022583 165.99334595 197.80022583 166.75170898 196.51245117 C168.1994846 194.06466803 169.65940712 191.62464828 171.125 189.1875 C171.51155762 188.54151855 171.89811523 187.89553711 172.29638672 187.22998047 C176.36056565 180.47663494 176.36056565 180.47663494 178.125 178.1875 C178.785 178.1875 179.445 178.1875 180.125 178.1875 C180.785 176.5375 181.445 174.8875 182.125 173.1875 C182.785 173.1875 183.445 173.1875 184.125 173.1875 C184.24875 172.3521875 184.24875 172.3521875 184.375 171.5 C185.36395541 168.45072081 186.97257466 166.53560037 189.125 164.1875 C189.785 164.1875 190.445 164.1875 191.125 164.1875 C191.36863281 163.63707031 191.61226562 163.08664062 191.86328125 162.51953125 C196.04501331 154.79044754 202.80624695 148.2204803 209.125 142.1875 C209.99125 141.32125 210.8575 140.455 211.75 139.5625 C212.53375 138.77875 213.3175 137.995 214.125 137.1875 C215.011875 136.259375 215.89875 135.33125 216.8125 134.375 C219.125 132.1875 219.125 132.1875 221.125 132.1875 C221.125 131.5275 221.125 130.8675 221.125 130.1875 C235.19128308 116.70875209 253.2577723 106.60758079 270.5 97.875 C271.14203369 97.54918945 271.78406738 97.22337891 272.44555664 96.88769531 C284.20774267 91.04837682 284.20774267 91.04837682 290.5625 90.5625 C293.93724293 90.58498981 293.93724293 90.58498981 295.125 89.1875 C314.08203739 86.19428357 332.45938911 87.70231165 348.5 98.75 C359.29039029 106.86521042 365.81851655 115.97655797 371.125 128.1875 C371.49625 128.98414063 371.8675 129.78078125 372.25 130.6015625 C374.36401638 136.84923591 374.29215495 143.47160342 374.25 150 C374.24516602 150.79116211 374.24033203 151.58232422 374.23535156 152.39746094 C374.13402044 162.30764476 373.12224188 170.91847547 370.2265625 180.44921875 C369.27584266 183.6755978 368.44627462 186.89127878 367.66918945 190.16113281 C365.12755743 200.8532493 361.66634505 211.02356008 357.0390625 221.01171875 C355.38223183 224.95554219 354.26009852 229.06846824 353.125 233.1875 C352.465 233.1875 351.805 233.1875 351.125 233.1875 C351.125 234.5075 351.125 235.8275 351.125 237.1875 C350.465 237.1875 349.805 237.1875 349.125 237.1875 C348.856875 238.21875 348.58875 239.25 348.3125 240.3125 C347.38906089 243.86418888 345.7973443 246.92805226 344.125 250.1875 C343.64160156 251.18910156 343.15820312 252.19070313 342.66015625 253.22265625 C341.93119141 254.72119141 341.93119141 254.72119141 341.1875 256.25 C340.70410156 257.25160156 340.22070312 258.25320313 339.72265625 259.28515625 C338.125 262.1875 338.125 262.1875 336.12109375 264.68359375 C334.02428464 267.13588146 334.02428464 267.13588146 332.6640625 270.109375 C330.95447882 273.52854235 328.84935014 276.44560032 326.5 279.4375 C326.06413574 279.99888672 325.62827148 280.56027344 325.17919922 281.13867188 C321.68460949 285.58931669 317.98268989 289.82054263 314.1328125 293.96875 C312.72220761 295.52755073 311.3721079 297.14221298 310.0703125 298.79296875 C307.67339393 301.74339261 305.09205295 303.82734424 302.125 306.1875 C306.42254307 311.25639696 310.84640209 316.17937387 315.3671875 321.05078125 C317.125 323.1875 317.125 323.1875 317.125 325.1875 C317.785 325.1875 318.445 325.1875 319.125 325.1875 C320.8515625 327.05078125 320.8515625 327.05078125 322.75 329.5 C323.38164063 330.30050781 324.01328125 331.10101562 324.6640625 331.92578125 C326.125 334.1875 326.125 334.1875 326.125 337.1875 C326.785 337.1875 327.445 337.1875 328.125 337.1875 C328.785 338.8375 329.445 340.4875 330.125 342.1875 C330.785 342.1875 331.445 342.1875 332.125 342.1875 C332.66125 343.30125 333.1975 344.415 333.75 345.5625 C336.73035818 351.52321637 340.2008334 357.20080056 343.80859375 362.80078125 C346.9087138 367.70001173 348.87129884 371.35237328 349.125 377.1875 C349.785 377.1875 350.445 377.1875 351.125 377.1875 C351.46273437 378.06792969 351.80046875 378.94835937 352.1484375 379.85546875 C352.81746094 381.59763672 352.81746094 381.59763672 353.5 383.375 C353.94085937 384.52355469 354.38171875 385.67210937 354.8359375 386.85546875 C355.61641146 388.87287569 356.4261482 390.87973663 357.2890625 392.86328125 C358.125 395.1875 358.125 395.1875 358.125 399.1875 C358.785 399.1875 359.445 399.1875 360.125 399.1875 C364.24996759 411.76412968 368.13798028 424.28900575 371.125 437.1875 C371.33898437 438.03183594 371.55296875 438.87617187 371.7734375 439.74609375 C376.42814221 458.66848027 374.68491489 477.3757124 367.125 495.1875 C365.58984375 497.6015625 365.58984375 497.6015625 364.125 499.1875 C363.465 499.1875 362.805 499.1875 362.125 499.1875 C361.91875 499.88875 361.7125 500.59 361.5 501.3125 C359.7415622 504.98923359 357.32071859 507.66045079 354.125 510.1875 C353.465 510.1875 352.805 510.1875 352.125 510.1875 C352.125 510.8475 352.125 511.5075 352.125 512.1875 C350.69921875 513.4765625 350.69921875 513.4765625 348.8125 514.8125 C347.89017578 515.48152344 347.89017578 515.48152344 346.94921875 516.1640625 C345.125 517.1875 345.125 517.1875 342.125 517.1875 C342.125 517.8475 342.125 518.5075 342.125 519.1875 C331.13772721 525.08807243 321.79898265 526.67493456 309.3125 526.5625 C308.03568359 526.57410156 306.75886719 526.58570313 305.44335938 526.59765625 C293.70382441 526.56181034 283.05204587 524.85444594 272.6875 519.1875 C272.03330078 518.84460938 271.37910156 518.50171875 270.70507812 518.1484375 C269.42861061 517.47889898 268.15495134 516.80397206 266.88452148 516.12304688 C264.32307274 514.76111104 261.72101637 513.48206519 259.125 512.1875 C256.89005276 511.03194561 254.6609288 509.86506508 252.4375 508.6875 C251.31988281 508.0996875 250.20226562 507.511875 249.05078125 506.90625 C246.58269089 505.45637048 245.04187337 504.23637363 243.125 502.1875 C241.45567407 501.23827545 239.7849439 500.29125644 238.1015625 499.3671875 C235.17152478 497.61842981 232.51713668 495.54682021 229.82421875 493.45703125 C228.14264083 492.12253991 228.14264083 492.12253991 226.125 491.1875 C226.125 490.5275 226.125 489.8675 226.125 489.1875 C225.59777344 488.96707031 225.07054687 488.74664063 224.52734375 488.51953125 C221.24615217 486.70020389 218.51815232 484.31097851 215.6875 481.875 C215.12740234 481.40126953 214.56730469 480.92753906 213.99023438 480.43945312 C208.90734855 476.10387607 204.07839685 471.6051179 200.125 466.1875 C200.125 465.5275 200.125 464.8675 200.125 464.1875 C199.526875 464.125625 198.92875 464.06375 198.3125 464 C195.22921892 462.85478131 194.73059689 461.01335053 193.125 458.1875 C192.01705078 457.09308594 192.01705078 457.09308594 190.88671875 455.9765625 C187.7265451 452.7851 185.05873427 449.40523399 182.375 445.8125 C181.59709106 444.77162231 181.59709106 444.77162231 180.8034668 443.7097168 C177.29193676 438.93755449 174.01050369 434.06551598 170.9375 429 C170.37627441 428.08371826 170.37627441 428.08371826 169.80371094 427.14892578 C167.86417117 423.85866781 166.60453402 420.98798606 166.125 417.1875 C165.465 417.1875 164.805 417.1875 164.125 417.1875 C162.68569536 414.64684066 161.24851161 412.10501978 159.8125 409.5625 C159.40837891 408.84964844 159.00425781 408.13679688 158.58789062 407.40234375 C152.125 395.94778963 152.125 395.94778963 152.125 393.1875 C151.465 393.1875 150.805 393.1875 150.125 393.1875 C149.465 392.1975 148.805 391.2075 148.125 390.1875 C147.60550781 390.77917969 147.08601562 391.37085938 146.55078125 391.98046875 C141.95707884 397.18553266 137.45380473 402.28643492 132.0625 406.6875 C129.32011833 409.02144184 127.35393564 411.38335517 125.125 414.1875 C123.47497172 415.54136936 121.8075613 416.87428142 120.125 418.1875 C119.238125 419.095 118.35125 420.0025 117.4375 420.9375 C115.125 423.1875 115.125 423.1875 113.125 423.1875 C112.83625 423.80625 112.5475 424.425 112.25 425.0625 C111.125 427.1875 111.125 427.1875 109.125 429.1875 C108.135 429.1875 107.145 429.1875 106.125 429.1875 C105.795 430.1775 105.465 431.1675 105.125 432.1875 C104.465 432.1875 103.805 432.1875 103.125 432.1875 C103.125 432.8475 103.125 433.5075 103.125 434.1875 C101.59547124 435.56232452 99.99977094 436.86415897 98.375 438.125 C97.49328125 438.81464844 96.6115625 439.50429688 95.703125 440.21484375 C94.85234375 440.86582031 94.0015625 441.51679687 93.125 442.1875 C92.39796875 442.76628906 91.6709375 443.34507812 90.921875 443.94140625 C89.125 445.1875 89.125 445.1875 87.125 445.1875 C87.125 445.8475 87.125 446.5075 87.125 447.1875 C80.375 451.1875 80.375 451.1875 78.125 451.1875 C77.87492188 451.78433594 77.62484375 452.38117188 77.3671875 452.99609375 C75.95184989 455.49296294 74.58071336 456.60091036 72.25 458.25 C71.57195313 458.73597656 70.89390625 459.22195313 70.1953125 459.72265625 C69.51210938 460.20605469 68.82890625 460.68945312 68.125 461.1875 C67.06925781 462.02087891 67.06925781 462.02087891 65.9921875 462.87109375 C64.125 464.1875 64.125 464.1875 62.125 464.1875 C62.125 464.8475 62.125 465.5075 62.125 466.1875 C60.4464487 467.68379179 58.70541102 469.11042661 56.9375 470.5 C53.9083166 472.88847259 51.08972235 475.2234822 48.38671875 477.98046875 C46.125 480.1875 46.125 480.1875 44.125 480.1875 C43.898125 480.868125 43.67125 481.54875 43.4375 482.25 C42.06965711 485.31136266 40.41095594 487.63057403 38.34375 490.24609375 C34.83526337 495.83493302 34.77241244 501.48911232 34.8125 507.875 C34.81769653 509.20640015 34.81769653 509.20640015 34.82299805 510.56469727 C34.96859376 519.36076956 36.33172292 526.70998776 41.125 534.1875 C47.49393513 548.26117688 48.62341124 565.85716157 44.1015625 580.75390625 C42.55602628 584.60538251 40.58265907 587.85709267 38.125 591.1875 C37.67125 591.85394531 37.2175 592.52039063 36.75 593.20703125 C33.23923712 598.19651219 29.19303095 602.72956844 24.125 606.1875 C23.135 606.1875 22.145 606.1875 21.125 606.1875 C21.125 606.8475 21.125 607.5075 21.125 608.1875 C19.07138119 609.3112944 17.0092235 610.4104269 14.9375 611.5 C13.78894531 612.11488281 12.64039063 612.72976563 11.45703125 613.36328125 C-0.22959517 618.66440242 -12.04836694 618.60627213 -24.62304688 618.46875 C-27.50143471 618.43748442 -30.37927115 618.42775157 -33.2578125 618.421875 C-57.61036724 618.31981638 -57.61036724 618.31981638 -61.875 616.1875 C-63.59859057 615.86451029 -65.32929876 615.57914634 -67.0625 615.3125 C-94.45758636 610.8833543 -94.45758636 610.8833543 -106.69140625 606 C-109.50831065 604.95184953 -112.37031737 604.11020858 -115.25 603.25 C-123.08138047 600.86889819 -130.54450431 598.02724152 -137.79296875 594.21484375 C-139.50211962 593.37149163 -141.25275436 592.61272079 -143.01171875 591.87890625 C-147.64498292 589.91311101 -152.05804478 587.54728871 -156.5 585.1875 C-157.33273437 584.74921875 -158.16546875 584.3109375 -159.0234375 583.859375 C-165.87069816 580.23948561 -172.39551793 576.2439825 -178.91796875 572.0703125 C-180.80915931 570.86614625 -182.70703449 569.67237451 -184.61328125 568.4921875 C-192.29217121 563.71371763 -200.45394577 558.60855423 -206.875 552.1875 C-209.20317964 551.81989269 -211.5368385 551.48508419 -213.875 551.1875 C-214.205 550.8575 -214.535 550.5275 -214.875 550.1875 C-217.18148759 549.83334255 -219.49584449 549.53003528 -221.8125 549.25 C-230.39124977 548.16065106 -238.4510796 546.76190418 -246.6171875 543.90234375 C-248.90503198 543.17799161 -251.14179621 542.68973107 -253.5 542.25 C-261.82637692 540.68880433 -270.3549493 538.67314998 -278.25 535.5625 C-281.07471027 534.49105817 -283.45006625 533.82011421 -286.375 533.25 C-290.08373985 532.48569888 -292.97915183 531.12898225 -296.3203125 529.32421875 C-300.56324895 527.43630666 -305.03318138 526.31213244 -309.49584961 525.0546875 C-315.11835144 523.45553053 -320.51923645 521.54298323 -325.875 519.1875 C-325.875 518.5275 -325.875 517.8675 -325.875 517.1875 C-326.679375 517.105 -327.48375 517.0225 -328.3125 516.9375 C-334.93757152 515.5427481 -340.8919355 512.24251782 -346.8984375 509.19140625 C-349.55892155 507.84013273 -352.23896671 506.52896475 -354.91796875 505.21484375 C-357.29675713 503.96609855 -359.57254378 502.5717353 -361.875 501.1875 C-363.70349282 500.17867637 -365.53695168 499.17880696 -367.375 498.1875 C-370.93180929 496.26922083 -374.42323298 494.28879467 -377.875 492.1875 C-378.49906738 491.81093262 -379.12313477 491.43436523 -379.76611328 491.04638672 C-381.91195971 489.74788733 -384.05005032 488.43726803 -386.1875 487.125 C-387.29834961 486.45500977 -387.29834961 486.45500977 -388.43164062 485.77148438 C-389.13095703 485.34029297 -389.83027344 484.90910156 -390.55078125 484.46484375 C-391.18927002 484.07546631 -391.82775879 483.68608887 -392.4855957 483.28491211 C-392.94409912 482.92276611 -393.40260254 482.56062012 -393.875 482.1875 C-393.875 481.5275 -393.875 480.8675 -393.875 480.1875 C-394.59945312 479.92582031 -395.32390625 479.66414063 -396.0703125 479.39453125 C-398.94546613 478.15717405 -401.21418014 476.70192453 -403.75 474.875 C-404.61109375 474.25625 -405.4721875 473.6375 -406.359375 473 C-407.18953125 472.401875 -408.0196875 471.80375 -408.875 471.1875 C-409.60203125 470.6925 -410.3290625 470.1975 -411.078125 469.6875 C-412.71266425 468.57122929 -414.29978604 467.38603236 -415.875 466.1875 C-415.875 465.5275 -415.875 464.8675 -415.875 464.1875 C-416.926875 463.8471875 -416.926875 463.8471875 -418 463.5 C-421.50599041 461.89943916 -423.97806611 459.71461254 -426.875 457.1875 C-427.65875 456.65125 -428.4425 456.115 -429.25 455.5625 C-429.78625 455.10875 -430.3225 454.655 -430.875 454.1875 C-430.875 453.1975 -430.875 452.2075 -430.875 451.1875 C-431.926875 450.8471875 -431.926875 450.8471875 -433 450.5 C-436.61628535 448.84908712 -438.96269976 446.8966165 -441.875 444.1875 C-441.875 443.5275 -441.875 442.8675 -441.875 442.1875 C-442.865 441.8575 -443.855 441.5275 -444.875 441.1875 C-444.875 440.5275 -444.875 439.8675 -444.875 439.1875 C-445.7721875 438.7853125 -445.7721875 438.7853125 -446.6875 438.375 C-448.87347854 437.18832594 -450.28832594 436.09150887 -451.875 434.1875 C-451.875 433.5275 -451.875 432.8675 -451.875 432.1875 C-452.7721875 431.7853125 -452.7721875 431.7853125 -453.6875 431.375 C-455.87347854 430.18832594 -457.28832594 429.09150887 -458.875 427.1875 C-458.875 426.5275 -458.875 425.8675 -458.875 425.1875 C-459.535 425.1875 -460.195 425.1875 -460.875 425.1875 C-460.875 424.5275 -460.875 423.8675 -460.875 423.1875 C-461.7721875 423.0946875 -461.7721875 423.0946875 -462.6875 423 C-465.75688712 421.85994193 -466.2249869 419.97982986 -467.875 417.1875 C-469.28068618 416.04333683 -470.68822406 414.90119419 -472.11328125 413.78125 C-475.85127547 410.3996499 -478.99697163 406.3146219 -481.875 402.1875 C-481.875 401.5275 -481.875 400.8675 -481.875 400.1875 C-482.535 400.1875 -483.195 400.1875 -483.875 400.1875 C-483.875 399.5275 -483.875 398.8675 -483.875 398.1875 C-484.535 398.1875 -485.195 398.1875 -485.875 398.1875 C-487.03125 396.89453125 -487.03125 396.89453125 -488.375 395 C-491.12859303 391.20286927 -493.94707456 387.46318125 -496.8125 383.75 C-497.24030762 383.1923999 -497.66811523 382.6347998 -498.10888672 382.06030273 C-500.07259294 379.50405394 -502.05205805 376.96767127 -504.07421875 374.45703125 C-504.70972656 373.66683594 -505.34523438 372.87664062 -506 372.0625 C-506.55945313 371.37929688 -507.11890625 370.69609375 -507.6953125 369.9921875 C-508.875 368.1875 -508.875 368.1875 -508.875 365.1875 C-509.535 365.1875 -510.195 365.1875 -510.875 365.1875 C-515.56954052 358.61514327 -518.81205354 351.28664549 -522.09228516 343.93847656 C-522.7523659 342.46183929 -523.42725096 340.99183284 -524.10546875 339.5234375 C-528.68960741 329.02031521 -530.13266067 318.16635096 -530.1875 306.8125 C-530.19297852 305.99281738 -530.19845703 305.17313477 -530.20410156 304.32861328 C-530.13840082 298.7270586 -529.28108888 293.60148507 -527.875 288.1875 C-527.4728125 286.57875 -527.4728125 286.57875 -527.0625 284.9375 C-524.58267931 277.10648731 -521.64185787 269.49059179 -517.875 262.1875 C-517.215 262.1875 -516.555 262.1875 -515.875 262.1875 C-515.4728125 260.57875 -515.4728125 260.57875 -515.0625 258.9375 C-514.01382569 255.62589693 -513.24747839 253.65883166 -510.875 251.1875 C-510.215 251.1875 -509.555 251.1875 -508.875 251.1875 C-508.80410156 250.65382813 -508.73320312 250.12015625 -508.66015625 249.5703125 C-507.55861058 246.22731319 -505.48025931 243.77639402 -503.3125 241.0625 C-502.86503418 240.49136475 -502.41756836 239.92022949 -501.95654297 239.33178711 C-498.53057776 234.97052732 -495.04099458 230.65996511 -491.55859375 226.34375 C-490.13456414 224.51993481 -488.82182718 222.68888864 -487.5625 220.75 C-486.13148273 218.57697377 -484.88307073 216.83046696 -482.875 215.1875 C-482.215 215.1875 -481.555 215.1875 -480.875 215.1875 C-480.215 213.5375 -479.555 211.8875 -478.875 210.1875 C-478.215 210.1875 -477.555 210.1875 -476.875 210.1875 C-476.5346875 209.383125 -476.5346875 209.383125 -476.1875 208.5625 C-473.72839513 204.11269119 -470.5362619 200.62480236 -466.625 197.4375 C-463.85140062 195.48118116 -463.85140062 195.48118116 -462.875 193.1875 C-462.215 193.1875 -461.555 193.1875 -460.875 193.1875 C-460.875 192.5275 -460.875 191.8675 -460.875 191.1875 C-459.265625 189.6015625 -459.265625 189.6015625 -457.125 187.8125 C-454.80596298 185.84992273 -452.62280716 183.9286705 -450.5 181.75 C-448.875 180.1875 -448.875 180.1875 -446.875 180.1875 C-446.875 179.5275 -446.875 178.8675 -446.875 178.1875 C-441.39880952 173.1875 -441.39880952 173.1875 -438.875 173.1875 C-438.875 172.5275 -438.875 171.8675 -438.875 171.1875 C-437.24067245 169.70980782 -435.54023632 168.30480681 -433.8125 166.9375 C-430.4874857 164.28261053 -427.19031729 161.62790196 -424 158.8125 C-421.44108673 156.59396474 -418.79606371 154.9101786 -415.875 153.1875 C-414.80081774 152.30570859 -413.73872867 151.40903349 -412.6875 150.5 C-409.875 148.1875 -409.875 148.1875 -407.875 148.1875 C-407.875 147.5275 -407.875 146.8675 -407.875 146.1875 C-405.79296875 144.4609375 -405.79296875 144.4609375 -403.0625 142.5625 C-402.16917969 141.93085938 -401.27585937 141.29921875 -400.35546875 140.6484375 C-397.875 139.1875 -397.875 139.1875 -394.875 139.1875 C-394.875 138.5275 -394.875 137.8675 -394.875 137.1875 C-393.41962432 136.34901196 -391.96059627 135.51686066 -390.5 134.6875 C-389.68789063 134.2234375 -388.87578125 133.759375 -388.0390625 133.28125 C-385.875 132.1875 -385.875 132.1875 -383.875 132.1875 C-383.875 131.5275 -383.875 130.8675 -383.875 130.1875 C-381.77903776 128.65025969 -379.69984622 127.24930434 -377.5 125.875 C-376.54903442 125.27377319 -376.54903442 125.27377319 -375.57885742 124.66040039 C-362.00336909 116.1875 -362.00336909 116.1875 -356.875 116.1875 C-356.875 115.5275 -356.875 114.8675 -356.875 114.1875 C-355.9675 113.81625 -355.06 113.445 -354.125 113.0625 C-350.82279475 111.6519772 -347.63571123 110.06932947 -344.4375 108.4375 C-339.51777885 105.95592565 -334.54440673 103.65050002 -329.5 101.4375 C-328.83427979 101.14391602 -328.16855957 100.85033203 -327.48266602 100.54785156 C-323.66413123 98.88824468 -319.8257938 97.49185484 -315.875 96.1875 C-314.05665814 95.40934497 -312.24424792 94.61720759 -310.4375 93.8125 C-304.5847186 91.33436093 -298.67052682 89.68510721 -292.515625 88.1796875 C-289.20802424 87.27825982 -286.11454474 86.1817811 -282.92382812 84.95019531 C-279.499152 83.6753278 -276.00702748 82.64693122 -272.5 81.625 C-271.37766968 81.29749756 -271.37766968 81.29749756 -270.23266602 80.96337891 C-264.81759714 79.40783066 -259.42785178 78.14794965 -253.875 77.1875 C-251.76093054 76.80749602 -249.64785051 76.4226002 -247.53540039 76.03369141 C-246.07185286 75.76461084 -244.607504 75.49984715 -243.14233398 75.23974609 C-239.71793073 74.8561252 -239.71793073 74.8561252 -236.875 73.1875 C-234.06100488 72.75095452 -231.25966627 72.37225535 -228.43359375 72.03125 C-227.56685532 71.92423767 -226.70011688 71.81722534 -225.80711365 71.70697021 C-222.97629445 71.36087415 -220.14456106 71.02327423 -217.3125 70.6875 C-216.35659973 70.57289429 -215.40069946 70.45828857 -214.41583252 70.34020996 C-201.41225621 68.7916239 -188.53117781 67.57875131 -175.4296875 67.328125 C-171.18355017 67.24595322 -167.07802853 66.78931933 -162.875 66.1875 C-162.875 65.5275 -162.875 64.8675 -162.875 64.1875 C-161.225 63.8575 -159.575 63.5275 -157.875 63.1875 C-157.875 62.5275 -157.875 61.8675 -157.875 61.1875 C-156.0390625 59.70703125 -156.0390625 59.70703125 -153.5 58 C-148.93503059 54.90906766 -144.45587483 51.72409398 -140.00390625 48.47265625 C-137.875 47.1875 -137.875 47.1875 -134.875 47.1875 C-134.875 46.5275 -134.875 45.8675 -134.875 45.1875 C-133.225 44.5275 -131.575 43.8675 -129.875 43.1875 C-129.875 42.5275 -129.875 41.8675 -129.875 41.1875 C-128.699375 40.630625 -127.52375 40.07375 -126.3125 39.5 C-123.3803667 38.04947469 -120.79343913 36.47454419 -118.1875 34.5 C-115.46940564 32.46766339 -113.3250744 31.50114313 -109.875 31.1875 C-109.875 30.5275 -109.875 29.8675 -109.875 29.1875 C-108.864375 28.775 -107.85375 28.3625 -106.8125 27.9375 C-104.29144254 26.86492287 -102.11887649 25.7338259 -99.75 24.3125 C-95.44705501 21.7790807 -90.81479747 20.15460409 -86.1484375 18.4140625 C-83.30304746 17.3478901 -80.49531254 16.22282632 -77.6875 15.0625 C-73.69342303 13.4571636 -69.67784639 12.14759866 -65.5390625 10.96875 C-63.68814612 10.42595927 -61.84978505 9.8392078 -60.0234375 9.21875 C-47.89027197 5.16412253 -35.06076835 3.20281939 -22.296875 2.49609375 C-19.73789954 2.25172059 -19.73789954 2.25172059 -16.8828125 1.171875 C-11.39296656 -0.46753616 -5.67380085 -0.06090521 0 0 Z M-23.875 43.1875 C-25.24708615 43.3412192 -26.62301112 43.46174472 -28 43.5625 C-31.77263332 43.94989521 -34.87054214 44.85127945 -38.390625 46.30859375 C-41.7583566 47.50000823 -45.21327567 48.2542785 -48.6875 49.0625 C-54.51075504 50.44628348 -59.69407532 52.24114002 -65.08203125 54.8984375 C-69.46357837 56.92069002 -74.03404094 58.36989776 -78.61328125 59.87890625 C-82.0709794 61.26612646 -84.81615616 63.07839509 -87.875 65.1875 C-91.25 66.4375 -91.25 66.4375 -93.875 67.1875 C-93.875 67.8475 -93.875 68.5075 -93.875 69.1875 C-94.803125 69.4040625 -94.803125 69.4040625 -95.75 69.625 C-97.90758322 70.11902225 -97.90758322 70.11902225 -99.875 71.1875 C-99.875 71.8475 -99.875 72.5075 -99.875 73.1875 C-100.679375 73.208125 -101.48375 73.22875 -102.3125 73.25 C-106.73992686 74.41511233 -109.26234475 76.58493532 -112.7265625 79.49609375 C-114.71446252 81.06111322 -116.57646976 82.15264136 -118.875 83.1875 C-118.875 83.8475 -118.875 84.5075 -118.875 85.1875 C-119.555625 85.39375 -120.23625 85.6 -120.9375 85.8125 C-124.23942241 87.3580807 -126.47001615 89.29375049 -129.12890625 91.75 C-130.951281 93.25029957 -132.76934528 94.14110539 -134.875 95.1875 C-135.926875 96.30125 -135.926875 96.30125 -137 97.4375 C-143.7318477 103.87665867 -150.62445107 107.13625452 -159.89453125 107.46875 C-160.83490234 107.50613281 -161.77527344 107.54351562 -162.74414062 107.58203125 C-163.71544922 107.61683594 -164.68675781 107.65164063 -165.6875 107.6875 C-171.3510083 107.89289251 -176.9171458 108.14771555 -182.53637695 108.92431641 C-189.03184846 109.65530276 -195.5934977 109.88158336 -202.11987305 110.23706055 C-204.11550579 110.34704102 -206.11050638 110.46830815 -208.10546875 110.58984375 C-209.28520264 110.65679443 -210.46493652 110.72374512 -211.68041992 110.79272461 C-214.77401808 111.175021 -217.03499998 111.95884751 -219.875 113.1875 C-222.46826217 113.58476569 -225.01978166 113.91779408 -227.625 114.1875 C-239.71751506 115.57993662 -239.71751506 115.57993662 -250.875 120.1875 C-249.73769614 123.59941157 -248.22377114 124.68296111 -245.48046875 126.87890625 C-240.91103134 130.60338687 -237.18511425 135.10374876 -233.42578125 139.61328125 C-232.91402344 140.13277344 -232.40226562 140.65226562 -231.875 141.1875 C-231.215 141.1875 -230.555 141.1875 -229.875 141.1875 C-229.606875 142.156875 -229.33875 143.12625 -229.0625 144.125 C-228.670625 145.135625 -228.27875 146.14625 -227.875 147.1875 C-226.39 147.6825 -226.39 147.6825 -224.875 148.1875 C-224.875 148.8475 -224.875 149.5075 -224.875 150.1875 C-224.215 150.1875 -223.555 150.1875 -222.875 150.1875 C-222.65457031 150.86425781 -222.43414062 151.54101562 -222.20703125 152.23828125 C-220.48527177 156.05038802 -218.1036255 159.07317412 -215.5625 162.375 C-211.2947899 168.03539713 -207.66606466 173.63389514 -204.875 180.1875 C-204.215 180.1875 -203.555 180.1875 -202.875 180.1875 C-202.71644531 180.75597656 -202.55789063 181.32445312 -202.39453125 181.91015625 C-201.18979494 185.89710128 -200.03241538 189.27080179 -197.4375 192.5625 C-194.5975463 196.22723067 -193.3174308 200.13056772 -191.84375 204.4921875 C-190.98459596 206.88257576 -190.00699505 209.01484638 -188.8125 211.25 C-186.85489683 214.98168105 -185.72604811 218.77687457 -184.58984375 222.82421875 C-183.86391013 225.40065212 -183.86391013 225.40065212 -182.375 228.5625 C-178.9660379 236.80082507 -177.49207716 245.76435325 -175.71875 254.47265625 C-175.03264376 257.49342958 -174.22709307 260.40251431 -173.35546875 263.37109375 C-171.72500391 269.28745271 -171.10349544 275.07840565 -170.6875 281.1875 C-170.60854492 282.28344482 -170.52958984 283.37938965 -170.44824219 284.50854492 C-169.47262653 298.98334482 -169.75841384 313.14926878 -170.6875 327.625 C-170.75743164 328.78620361 -170.82736328 329.94740723 -170.89941406 331.14379883 C-171.38290879 337.8794968 -172.40815037 344.14816621 -174.20556641 350.66088867 C-175.03860927 353.80500266 -175.42448163 356.96951165 -175.875 360.1875 C-176.52766469 362.19211299 -177.19704472 364.19129834 -177.875 366.1875 C-178.36368745 368.16433736 -178.84184016 370.14379312 -179.3125 372.125 C-180.44281311 376.74232907 -181.99217858 380.8193543 -183.875 385.1875 C-184.90380273 388.74079457 -185.87300341 392.30489632 -186.8125 395.8828125 C-187.83030547 399.04848685 -189.11846971 401.38817468 -190.875 404.1875 C-191.4892729 405.70927895 -192.055629 407.25165915 -192.5625 408.8125 C-192.81386719 409.56789063 -193.06523437 410.32328125 -193.32421875 411.1015625 C-194.00264766 413.31136024 -194.00264766 413.31136024 -193.875 416.1875 C-194.535 416.1875 -195.195 416.1875 -195.875 416.1875 C-196.52855469 417.51201172 -196.52855469 417.51201172 -197.1953125 418.86328125 C-215.6891987 456.20700731 -215.6891987 456.20700731 -225.0625 465.3125 C-226.9938084 467.31040524 -227.4877889 468.47702231 -227.875 471.1875 C-228.535 471.1875 -229.195 471.1875 -229.875 471.1875 C-230.2153125 472.0228125 -230.2153125 472.0228125 -230.5625 472.875 C-232.24528092 475.83989972 -234.43608512 477.804015 -236.875 480.1875 C-237.97402234 481.360495 -239.05709483 482.54860668 -240.125 483.75 C-240.87523437 484.58724609 -240.87523437 484.58724609 -241.640625 485.44140625 C-243.00900761 487.14005131 -243.00900761 487.14005131 -243.359375 489.33984375 C-243.61460937 490.25443359 -243.61460937 490.25443359 -243.875 491.1875 C-244.865 491.5175 -245.855 491.8475 -246.875 492.1875 C-246.875 492.8475 -246.875 493.5075 -246.875 494.1875 C-247.49375 494.455625 -248.1125 494.72375 -248.75 495 C-251.1745233 496.14306848 -251.1745233 496.14306848 -252.875 499.1875 C-245.15507308 503.95085916 -236.68495609 504.87550654 -227.875 506.1875 C-227.2051709 506.28804687 -226.5353418 506.38859375 -225.84521484 506.4921875 C-222.97086046 506.92330425 -220.09677844 507.35175403 -217.21875 507.7578125 C-214.875 508.1875 -214.875 508.1875 -213.875 509.1875 C-212.72 509.3525 -211.565 509.5175 -210.375 509.6875 C-206.875 510.1875 -206.875 510.1875 -205.875 511.1875 C-204.72 511.290625 -203.565 511.39375 -202.375 511.5 C-198.08396679 511.96389548 -194.69643501 513.43737038 -190.85546875 515.34765625 C-188.77321016 516.38270497 -188.77321016 516.38270497 -185.875 516.1875 C-185.875 516.8475 -185.875 517.5075 -185.875 518.1875 C-183.05990007 520.4648501 -183.05990007 520.4648501 -179.875 520.1875 C-179.875 520.8475 -179.875 521.5075 -179.875 522.1875 C-178.555 522.5175 -177.235 522.8475 -175.875 523.1875 C-175.875 523.8475 -175.875 524.5075 -175.875 525.1875 C-174.15698718 526.55387653 -174.15698718 526.55387653 -172 527.8125 C-171.28070313 528.25851562 -170.56140625 528.70453125 -169.8203125 529.1640625 C-167.94635238 530.34269998 -167.94635238 530.34269998 -165.875 530.1875 C-165.875 530.8475 -165.875 531.5075 -165.875 532.1875 C-164.740625 532.80625 -163.60625 533.425 -162.4375 534.0625 C-159 535.9375 -159 535.9375 -157.875 538.1875 C-153.62926241 540.18549416 -149.3509715 541.76828953 -144.875 543.1875 C-144.875 543.8475 -144.875 544.5075 -144.875 545.1875 C-136.53823933 549.45109714 -128.2356895 553.60884707 -119.5390625 557.1015625 C-117.08888939 558.10031342 -114.70648799 559.18741024 -112.3125 560.3125 C-108.14018451 562.19726183 -103.88980013 563.37388009 -99.453125 564.4765625 C-96.82439643 565.20145432 -94.40168292 566.16607499 -91.875 567.1875 C-89.75634127 567.8740527 -87.63081261 568.53965198 -85.5 569.1875 C-84.41976562 569.5175 -83.33953125 569.8475 -82.2265625 570.1875 C-81.12054687 570.5175 -80.01453125 570.8475 -78.875 571.1875 C-77.76898437 571.5278125 -76.66296875 571.868125 -75.5234375 572.21875 C-71.3285657 573.33259176 -67.16265288 574.04330031 -62.875 574.6875 C-61.6384668 574.87868408 -61.6384668 574.87868408 -60.37695312 575.07373047 C-53.85762549 576.07022754 -47.32603531 576.94682823 -40.78125 577.7578125 C-37.875 578.1875 -37.875 578.1875 -34.875 579.1875 C-31.71216282 579.41303789 -28.54507076 579.37264482 -25.375 579.375 C-24.50746094 579.38724609 -23.63992188 579.39949219 -22.74609375 579.41210938 C-21.49505859 579.41500977 -21.49505859 579.41500977 -20.21875 579.41796875 C-19.07696289 579.42413208 -19.07696289 579.42413208 -17.91210938 579.43041992 C-15.5628 579.3060105 -15.5628 579.3060105 -12.875 577.1875 C-11.44723477 576.86931232 -10.00755211 576.60211527 -8.5625 576.375 C-3.70867897 575.36147783 -1.25666721 573.82279225 2.125 570.1875 C3.08047581 567.51641902 3.08047581 567.51641902 3.125 565.1875 C3.785 565.1875 4.445 565.1875 5.125 565.1875 C5.80785732 558.19200608 4.67751228 553.66752455 1.5625 547.4375 C-8.60437117 524.4515304 -9.65249188 498.25851054 -0.75 474.6875 C3.51774801 465.55557956 9.87468293 457.14238819 17.125 450.1875 C18.0221875 449.259375 18.0221875 449.259375 18.9375 448.3125 C23.21644197 444.15581352 27.57094205 440.07270965 32.625 436.875 C33.8625 436.0396875 33.8625 436.0396875 35.125 435.1875 C35.125 434.5275 35.125 433.8675 35.125 433.1875 C35.65351562 432.95804688 36.18203125 432.72859375 36.7265625 432.4921875 C39.9100713 430.76044167 42.66602731 428.55225261 45.5 426.3125 C49.60452015 423.08066988 53.75434899 420.05981972 58.125 417.1875 C59.8075613 415.87428142 61.47497172 414.54136936 63.125 413.1875 C63.970625 412.5275 64.81625 411.8675 65.6875 411.1875 C68.14062261 409.24137611 68.14062261 409.24137611 70.25 407.0625 C72.125 405.1875 72.125 405.1875 75.125 403.1875 C75.125 402.5275 75.125 401.8675 75.125 401.1875 C75.7025 400.919375 76.28 400.65125 76.875 400.375 C79.18050043 399.15820811 81.14556192 397.88416121 83.125 396.1875 C83.125 395.5275 83.125 394.8675 83.125 394.1875 C83.66125 393.960625 84.1975 393.73375 84.75 393.5 C87.94960161 391.73179911 90.41537223 389.65079797 93.125 387.1875 C93.125 386.5275 93.125 385.8675 93.125 385.1875 C93.681875 384.960625 94.23875 384.73375 94.8125 384.5 C97.78659588 382.81199964 99.84508865 380.72073483 102.125 378.1875 C102.125 377.5275 102.125 376.8675 102.125 376.1875 C102.764375 375.919375 103.40375 375.65125 104.0625 375.375 C106.45631686 374.30082248 106.45631686 374.30082248 107.125 371.1875 C107.785 371.1875 108.445 371.1875 109.125 371.1875 C109.125 370.5275 109.125 369.8675 109.125 369.1875 C109.681875 368.960625 110.23875 368.73375 110.8125 368.5 C113.78659588 366.81199964 115.84508865 364.72073483 118.125 362.1875 C118.125 361.5275 118.125 360.8675 118.125 360.1875 C119.115 359.8575 120.105 359.5275 121.125 359.1875 C122.90755008 357.42868094 122.90755008 357.42868094 124.625 355.3125 C127.97794118 351.32720588 127.97794118 351.32720588 129.84375 349.5546875 C131.35293414 348.25656322 131.35293414 348.25656322 131.125 346.1875 C132.2078125 345.7853125 132.2078125 345.7853125 133.3125 345.375 C136.95184905 343.83838596 140.14962065 341.85953972 143.3984375 339.62109375 C148.39413372 336.9944168 153.63670798 337.51240258 159.125 338.1875 C167.80488447 340.92851615 174.29280646 344.95591204 178.56274414 353.07836914 C179.11949829 354.18426392 179.11949829 354.18426392 179.6875 355.3125 C180.07736084 356.06716553 180.46722168 356.82183105 180.86889648 357.59936523 C183.62282007 363.00020214 186.11351962 368.46251738 188.125 374.1875 C188.785 374.1875 189.445 374.1875 190.125 374.1875 C190.19976563 374.83589844 190.27453125 375.48429687 190.3515625 376.15234375 C191.42892649 380.38018121 193.42768373 383.92998663 195.5 387.75 C195.89960937 388.50474609 196.29921875 389.25949219 196.7109375 390.03710938 C198.64038826 393.63896236 200.60543491 396.96043526 203.125 400.1875 C203.96256758 401.63158203 204.77489083 403.09057467 205.5625 404.5625 C207.06283034 407.3183938 208.59731176 409.97677165 210.375 412.5625 C212.125 415.1875 212.125 415.1875 213.125 418.1875 C215.00008162 420.3960766 215.00008162 420.3960766 217.125 422.1875 C217.785 422.1875 218.445 422.1875 219.125 422.1875 C219.310625 422.8475 219.49625 423.5075 219.6875 424.1875 C221.42086917 427.80496609 223.71630891 430.32656626 226.40234375 433.27734375 C228.125 435.1875 228.125 435.1875 230.0625 437.75 C232.52636768 440.66184362 235.28408149 443.02254102 238.1796875 445.49609375 C240.6135619 447.61229378 242.84493343 449.90743343 245.125 452.1875 C249.08332862 456.39461592 249.08332862 456.39461592 254.125 458.1875 C254.125 458.8475 254.125 459.5075 254.125 460.1875 C255.89210099 461.42185061 257.71519568 462.57676416 259.5625 463.6875 C265.01988117 466.97726234 265.01988117 466.97726234 266.125 469.1875 C269.15434491 469.84522428 269.15434491 469.84522428 272.125 470.1875 C272.125 470.8475 272.125 471.5075 272.125 472.1875 C274.2030065 473.36463663 276.28651783 474.52921974 278.375 475.6875 C279.25478516 476.18830078 279.25478516 476.18830078 280.15234375 476.69921875 C283.51082107 478.54826806 285.19145784 479.1875 289.125 479.1875 C289.125 479.8475 289.125 480.5075 289.125 481.1875 C299.14911966 484.50910178 309.13298356 487.39202964 319.5625 484 C325.00372803 481.23165591 328.4020059 477.63348821 331.125 472.1875 C334.72035124 459.16328062 330.77255638 441.65275617 325.56640625 429.5703125 C324.28586924 426.56504136 323.50712606 423.94866939 322.9375 420.75 C322.69966797 419.45255859 322.69966797 419.45255859 322.45703125 418.12890625 C322.34746094 417.48824219 322.23789062 416.84757812 322.125 416.1875 C321.465 416.1875 320.805 416.1875 320.125 416.1875 C320.0321875 415.0428125 320.0321875 415.0428125 319.9375 413.875 C318.97041554 409.48592435 317.22548399 405.80885339 315.28125 401.7734375 C314.29033639 399.5572726 313.6141126 397.55524964 313.125 395.1875 C312.465 395.1875 311.805 395.1875 311.125 395.1875 C311.021875 393.970625 310.91875 392.75375 310.8125 391.5 C310.32551585 387.68417902 309.31705758 385.3972986 307.125 382.1875 C306.36778786 380.79556592 305.61864607 379.39922879 304.875 378 C301.99642206 372.7890803 298.59533884 368.01579751 295.125 363.1875 C294.63386719 362.465625 294.14273438 361.74375 293.63671875 361 C292.51617204 359.36049803 291.32747422 357.76789469 290.125 356.1875 C289.465 356.1875 288.805 356.1875 288.125 356.1875 C287.8775 355.445 287.63 354.7025 287.375 353.9375 C285.98920234 350.88874514 284.55048493 349.47823577 282.125 347.1875 C280.56012549 345.33372558 279.02018573 343.46239225 277.4921875 341.578125 C277.04101562 341.11921875 276.58984375 340.6603125 276.125 340.1875 C275.465 340.1875 274.805 340.1875 274.125 340.1875 C273.856875 339.589375 273.58875 338.99125 273.3125 338.375 C272.12582594 336.18902146 271.02900887 334.77417406 269.125 333.1875 C268.465 333.1875 267.805 333.1875 267.125 333.1875 C267.125 332.5275 267.125 331.8675 267.125 331.1875 C265.14239574 329.50017723 263.1417658 327.83383943 261.125 326.1875 C260.795 325.5275 260.465 324.8675 260.125 324.1875 C259.465 324.1875 258.805 324.1875 258.125 324.1875 C257.691875 323.07375 257.691875 323.07375 257.25 321.9375 C256.2595165 319.3024808 256.2595165 319.3024808 255.08203125 317.49609375 C252.58861466 311.48136231 252.98261376 302.42133182 255.140625 296.3125 C256.35163097 294.15311586 257.66305465 292.18267769 259.125 290.1875 C259.805625 288.82625 259.805625 288.82625 260.5 287.4375 C262.44998778 284.73751692 264.61756041 283.2807367 267.359375 281.4375 C269.91296 279.62965221 271.97453559 277.45114675 274.125 275.1875 C275.5171875 273.8571875 275.5171875 273.8571875 276.9375 272.5 C279.35406662 270.47587851 279.35406662 270.47587851 279.125 268.1875 C279.785 268.1875 280.445 268.1875 281.125 268.1875 C281.125 267.5275 281.125 266.8675 281.125 266.1875 C282.115 265.8575 283.105 265.5275 284.125 265.1875 C286.35431824 263.37489868 286.35431824 263.37489868 288.125 261.1875 C288.125 260.1975 288.125 259.2075 288.125 258.1875 C288.785 258.1875 289.445 258.1875 290.125 258.1875 C294.05864826 254.30953912 294.05864826 254.30953912 295.125 249.1875 C295.785 249.1875 296.445 249.1875 297.125 249.1875 C298.53068804 247.23767465 299.8545036 245.22799422 301.125 243.1875 C301.7025 242.32125 302.28 241.455 302.875 240.5625 C304.43549762 238.04486515 304.43549762 238.04486515 304.125 234.1875 C304.785 234.1875 305.445 234.1875 306.125 234.1875 C312.80816832 220.93979949 319.13224188 207.5063567 323.125 193.1875 C323.62019672 191.47776815 324.12020855 189.76942366 324.625 188.0625 C324.8415625 187.31742188 325.058125 186.57234375 325.28125 185.8046875 C325.9848039 183.62236752 326.77342716 181.52951181 327.61328125 179.3984375 C329.16290587 175.30156351 330.08551598 171.24954242 330.8125 166.9375 C330.9377002 166.19951172 331.06290039 165.46152344 331.19189453 164.70117188 C332.65106747 155.56099199 333.87894642 145.58170608 329.125 137.1875 C325.55486218 133.1775626 321.2158621 129.63126317 315.78515625 128.8515625 C302.52903955 128.6522224 291.58986587 134.15194194 280.125 140.1875 C278.16913306 141.171584 276.21109152 142.15136923 274.25 143.125 C273.44820312 143.52589844 272.64640625 143.92679687 271.8203125 144.33984375 C271.26085937 144.61957031 270.70140625 144.89929688 270.125 145.1875 C270.125 145.8475 270.125 146.5075 270.125 147.1875 C268.475 147.8475 266.825 148.5075 265.125 149.1875 C265.125 149.8475 265.125 150.5075 265.125 151.1875 C264.44050781 151.414375 263.75601563 151.64125 263.05078125 151.875 C259.37981814 153.52178719 256.47107773 155.72261214 253.3125 158.1875 C252.4162793 158.86425781 252.4162793 158.86425781 251.50195312 159.5546875 C250.00152419 160.71387603 248.55775496 161.94563919 247.125 163.1875 C247.125 163.8475 247.125 164.5075 247.125 165.1875 C246.01125 165.54908203 246.01125 165.54908203 244.875 165.91796875 C241.74909369 167.36103629 240.31735162 168.87006207 238.125 171.5 C235.87231002 174.15373706 233.65051217 176.72863334 231.125 179.125 C228.89295139 180.94797326 228.89295139 180.94797326 229.125 183.1875 C228.465 183.1875 227.805 183.1875 227.125 183.1875 C225.56651282 185.09494636 224.11612731 186.99899859 222.6875 189 C220.3332099 192.26067258 218.02536115 195.3857347 215.125 198.1875 C214.22355006 199.33385253 213.34813116 200.50115703 212.5 201.6875 C212.07460938 202.2753125 211.64921875 202.863125 211.2109375 203.46875 C209.95063683 205.31160751 209.95063683 205.31160751 209.125 208.1875 C208.1307802 209.19324698 207.12973926 210.19226182 206.125 211.1875 C202.32138651 216.65023028 198.94495357 222.29473571 196.08203125 228.30078125 C195.06261733 230.31048298 193.90831867 232.1689082 192.6875 234.0625 C189.14219057 239.615 186.24235565 245.4801817 183.73046875 251.56640625 C182.06832558 255.3153277 180.21673554 258.57545705 178.0625 262.0625 C177.5355957 262.93261719 177.5355957 262.93261719 176.99804688 263.8203125 C174.37704723 268.06147638 174.37704723 268.06147638 172.125 269.1875 C172.125 269.8475 172.125 270.5075 172.125 271.1875 C170.64 271.5896875 170.64 271.5896875 169.125 272 C166.41130076 272.75592023 163.89831905 273.70128244 161.3125 274.8125 C152.84810595 277.96430892 145.80097781 276.26459031 137.7578125 272.61328125 C134.57367563 270.88893413 132.42629063 268.97694318 130.125 266.1875 C129.36058594 265.445 128.59617187 264.7025 127.80859375 263.9375 C124.47631585 260.52276399 121.71376939 256.82737377 118.875 253.00390625 C116.19231691 249.44096777 113.32509896 246.31127633 110.125 243.1875 C109.2896875 242.0428125 109.2896875 242.0428125 108.4375 240.875 C108.004375 240.318125 107.57125 239.76125 107.125 239.1875 C106.465 239.1875 105.805 239.1875 105.125 239.1875 C105.125 238.5275 105.125 237.8675 105.125 237.1875 C103.50525441 235.47519752 101.8291054 233.81586738 100.125 232.1875 C99.238125 231.259375 98.35125 230.33125 97.4375 229.375 C95.41337851 226.95843338 95.41337851 226.95843338 93.125 227.1875 C92.898125 226.630625 92.67125 226.07375 92.4375 225.5 C90.74356764 222.51545251 88.60885302 220.56095955 86.125 218.1875 C84.95726034 217.00105513 83.79064605 215.81350185 82.625 214.625 C79.93777644 211.92604184 77.10854127 209.55678277 74.125 207.1875 C73.795 206.5275 73.465 205.8675 73.125 205.1875 C71.40092421 204.2259962 69.67605295 203.26586103 67.9453125 202.31640625 C65.2896711 200.66945268 63.33063589 198.39313589 61.125 196.1875 C58.20480007 194.06536713 55.16254115 192.13662686 52.125 190.1875 C50.03737422 188.83996011 47.95417507 187.4855426 45.875 186.125 C44.90046875 185.49464844 43.9259375 184.86429688 42.921875 184.21484375 C39.99244598 182.09141685 37.60500326 179.81768349 35.125 177.1875 C34.45597656 176.48753906 33.78695313 175.78757812 33.09765625 175.06640625 C24.71138415 164.89655072 20.1074217 149.34535277 21.125 136.1875 C21.73672387 134.49989337 22.40723214 132.8328059 23.125 131.1875 C23.61340776 129.08594812 24.0110993 126.97402884 24.41772461 124.85522461 C26.03625168 116.51890284 28.22788851 110.21214836 33.125 103.1875 C34.06049959 101.55229798 34.97790499 99.90658253 35.875 98.25 C37.21089968 95.79639758 38.57041479 93.51937781 40.125 91.1875 C40.125 90.1975 40.125 89.2075 40.125 88.1875 C40.785 88.1875 41.445 88.1875 42.125 88.1875 C44.1684483 84.54335053 46.15915228 80.87406528 48.125 77.1875 C48.53878906 76.43597656 48.95257812 75.68445313 49.37890625 74.91015625 C52.78619808 68.15843775 54.45155388 59.81730439 52.3359375 52.43359375 C50.10037222 48.28698073 45.75449227 46.83085137 41.5625 45.17578125 C25.04735057 40.42767579 -7.90869915 35.20434957 -23.875 43.1875 Z M-309.25 137.375 C-310.38050781 137.83777344 -311.51101563 138.30054688 -312.67578125 138.77734375 C-316.48304529 140.45551508 -320.16794021 142.30026956 -323.875 144.1875 C-325.20012874 144.55208568 -326.53239852 144.89371412 -327.875 145.1875 C-327.875 145.8475 -327.875 146.5075 -327.875 147.1875 C-330.185 147.8475 -332.495 148.5075 -334.875 149.1875 C-334.875 149.8475 -334.875 150.5075 -334.875 151.1875 C-335.7825 151.31125 -336.69 151.435 -337.625 151.5625 C-340.46470323 152.10859677 -342.40090591 152.76013803 -344.875 154.1875 C-344.875 154.8475 -344.875 155.5075 -344.875 156.1875 C-345.42027344 156.32285156 -345.96554687 156.45820313 -346.52734375 156.59765625 C-352.30542144 158.24712458 -356.20354452 160.73059258 -360.80859375 164.55078125 C-363.31858042 166.53884253 -365.99307144 167.81203409 -368.875 169.1875 C-370.5575613 170.50071858 -372.22497172 171.83363064 -373.875 173.1875 C-375.53779327 174.1939275 -377.20483484 175.19335407 -378.875 176.1875 C-380.15559013 177.02696827 -381.42608539 177.88198431 -382.6875 178.75 C-383.59435547 179.37068359 -383.59435547 179.37068359 -384.51953125 180.00390625 C-384.96683594 180.39449219 -385.41414063 180.78507812 -385.875 181.1875 C-385.875 181.8475 -385.875 182.5075 -385.875 183.1875 C-386.41125 183.435 -386.9475 183.6825 -387.5 183.9375 C-393.83849733 187.27355123 -399.38148458 191.63164669 -404.375 196.75 C-407.01830197 199.32721942 -409.80904569 201.14353046 -412.875 203.1875 C-414.58279973 204.81199243 -416.25050757 206.47970027 -417.875 208.1875 C-420.41600561 210.79365961 -422.91168653 213.21700873 -425.75 215.5 C-428.97168137 218.11709849 -431.53211541 221.18308203 -434.2109375 224.33984375 C-435.875 226.1875 -435.875 226.1875 -438.5625 228.3125 C-441.3715584 230.59011492 -442.92033395 233.16092031 -444.875 236.1875 C-446.16603643 237.5618291 -447.5006709 238.89646357 -448.875 240.1875 C-451.64031873 242.81455279 -453.85903918 245.16283328 -455.9375 248.375 C-457.82367293 251.11299296 -458.80915694 252.09255605 -461.875 253.1875 C-461.875 254.1775 -461.875 255.1675 -461.875 256.1875 C-462.535 256.1875 -463.195 256.1875 -463.875 256.1875 C-464.88851664 257.84598177 -465.88620795 259.51415961 -466.875 261.1875 C-468.875 263.1875 -468.875 263.1875 -470.875 265.1875 C-473.18966608 268.42657009 -473.18966608 268.42657009 -473.875 272.1875 C-474.535 272.1875 -475.195 272.1875 -475.875 272.1875 C-476.535 274.4975 -477.195 276.8075 -477.875 279.1875 C-478.535 279.1875 -479.195 279.1875 -479.875 279.1875 C-480.59816406 280.74210937 -480.59816406 280.74210937 -481.3359375 282.328125 C-481.97392902 283.69793032 -482.61195148 285.06772123 -483.25 286.4375 C-483.72566406 287.46037109 -483.72566406 287.46037109 -484.2109375 288.50390625 C-484.5203125 289.16777344 -484.8296875 289.83164062 -485.1484375 290.515625 C-485.59751465 291.48786011 -485.59751465 291.48786011 -486.05566406 292.47973633 C-486.875 294.1875 -486.875 294.1875 -488.0703125 296.21484375 C-491.35816526 304.27487115 -489.31512953 314.51420205 -486.0625 322.25 C-485.02296408 324.5729136 -483.96103202 326.8859577 -482.875 329.1875 C-481.85831753 331.51403981 -480.86654442 333.85007548 -479.875 336.1875 C-479.215 336.1875 -478.555 336.1875 -477.875 336.1875 C-477.215 338.1675 -476.555 340.1475 -475.875 342.1875 C-475.215 342.1875 -474.555 342.1875 -473.875 342.1875 C-472.79974806 344.83978812 -471.78043849 347.47118454 -470.875 350.1875 C-470.215 350.1875 -469.555 350.1875 -468.875 350.1875 C-467.885 352.6625 -467.885 352.6625 -466.875 355.1875 C-466.215 355.1875 -465.555 355.1875 -464.875 355.1875 C-464.689375 355.8475 -464.50375 356.5075 -464.3125 357.1875 C-462.23666999 361.51966697 -459.10032905 364.66484603 -455.875 368.1875 C-454.57900074 369.64198438 -453.28715635 371.10018423 -452 372.5625 C-451.42507813 373.20960938 -450.85015625 373.85671875 -450.2578125 374.5234375 C-448.875 376.1875 -448.875 376.1875 -447.875 378.1875 C-447.215 378.1875 -446.555 378.1875 -445.875 378.1875 C-445.648125 378.72375 -445.42125 379.26 -445.1875 379.8125 C-443.41929911 383.01210161 -441.33829797 385.47787223 -438.875 388.1875 C-438.215 388.1875 -437.555 388.1875 -436.875 388.1875 C-436.648125 388.744375 -436.42125 389.30125 -436.1875 389.875 C-434.50132969 392.84587149 -432.32112884 394.79572958 -429.875 397.1875 C-428.03687785 399.27915623 -426.22639204 401.39162291 -424.42578125 403.515625 C-422.96149533 405.29076363 -422.96149533 405.29076363 -420.875 406.1875 C-420.38 407.6725 -420.38 407.6725 -419.875 409.1875 C-418.22669177 410.70720619 -418.22669177 410.70720619 -416.125 412.1875 C-411.42514043 415.7199265 -406.94916084 419.4619618 -402.48144531 423.27929688 C-397.26656517 428.60661564 -397.26656517 428.60661564 -390.875 431.1875 C-390.875 431.8475 -390.875 432.5075 -390.875 433.1875 C-390.215 433.1875 -389.555 433.1875 -388.875 433.1875 C-388.875 433.8475 -388.875 434.5075 -388.875 435.1875 C-386.70041722 437.008542 -386.70041722 437.008542 -384 438.8125 C-383.09507812 439.44414063 -382.19015625 440.07578125 -381.2578125 440.7265625 C-379.05666294 442.36173105 -379.05666294 442.36173105 -376.875 442.1875 C-376.875 442.8475 -376.875 443.5075 -376.875 444.1875 C-374.46939414 446.01255013 -374.46939414 446.01255013 -371.5 447.8125 C-370.00339844 448.75996094 -370.00339844 448.75996094 -368.4765625 449.7265625 C-366.08164169 451.35071318 -366.08164169 451.35071318 -363.875 451.1875 C-363.875 451.8475 -363.875 452.5075 -363.875 453.1875 C-363.23433594 453.49042969 -362.59367187 453.79335938 -361.93359375 454.10546875 C-357.16740187 456.41398195 -352.83705458 458.80817281 -348.60546875 461.984375 C-345.24756535 464.31898955 -341.05152453 467.1875 -336.875 467.1875 C-336.875 467.8475 -336.875 468.5075 -336.875 469.1875 C-336.2459375 469.42984375 -335.616875 469.6721875 -334.96875 469.921875 C-328.7439491 472.35929704 -322.72180134 475.01322098 -316.8984375 478.3046875 C-314.63189738 479.4540936 -314.63189738 479.4540936 -310.875 479.1875 C-310.875 479.8475 -310.875 480.5075 -310.875 481.1875 C-303.78428614 483.81910633 -303.78428614 483.81910633 -296.5 483.1875 C-293.67798274 481.03739162 -291.32558506 478.75477959 -288.875 476.1875 C-287.506626 475.01306877 -286.13115985 473.84686775 -284.75 472.6875 C-281.71748136 470.07443254 -279.85695119 467.67950925 -277.875 464.1875 C-277.00875 463.506875 -276.1425 462.82625 -275.25 462.125 C-272.61149829 459.97253807 -272.60400488 459.31180663 -271.875 456.1875 C-271.27429688 455.8997168 -270.67359375 455.61193359 -270.0546875 455.31542969 C-267.47630023 453.98118358 -266.3215041 452.56303549 -264.5625 450.265625 C-263.96179688 449.48703125 -263.36109375 448.7084375 -262.7421875 447.90625 C-262.12601563 447.0915625 -261.50984375 446.276875 -260.875 445.4375 C-260.25882813 444.63828125 -259.64265625 443.8390625 -259.0078125 443.015625 C-252.95186345 436.19662817 -252.95186345 436.19662817 -249.875 428.1875 C-249.215 428.1875 -248.555 428.1875 -247.875 428.1875 C-247.57207031 427.5584375 -247.26914062 426.929375 -246.95703125 426.28125 C-244.96654441 422.21453228 -242.98112362 418.22925038 -240.5 414.4375 C-238.11919054 410.72556704 -236.06547267 406.86263959 -234.0625 402.9375 C-233.74812988 402.33454102 -233.43375977 401.73158203 -233.10986328 401.11035156 C-231.44088643 397.78722497 -230.875 396.00115318 -230.875 392.1875 C-230.215 392.1875 -229.555 392.1875 -228.875 392.1875 C-228.62105469 391.46304687 -228.36710937 390.73859375 -228.10546875 389.9921875 C-227.58919922 388.54199219 -227.58919922 388.54199219 -227.0625 387.0625 C-226.72605469 386.11117187 -226.38960938 385.15984375 -226.04296875 384.1796875 C-224.875 381.1875 -224.875 381.1875 -223.43359375 378.48828125 C-221.30025728 373.97031303 -220.06561578 369.30960041 -218.75 364.5 C-218.22698582 362.62097587 -217.70356621 360.74206453 -217.1796875 358.86328125 C-216.8391333 357.6244519 -216.8391333 357.6244519 -216.49169922 356.3605957 C-215.99848005 354.62261318 -215.44630101 352.90140302 -214.875 351.1875 C-214.80834624 349.79310336 -214.78961801 348.39580125 -214.8125 347 C-214.8434375 345.1128125 -214.8434375 345.1128125 -214.875 343.1875 C-214.215 343.1875 -213.555 343.1875 -212.875 343.1875 C-210.71159198 319.17712321 -210.37591486 296.17472945 -212.875 272.1875 C-213.535 272.1875 -214.195 272.1875 -214.875 272.1875 C-214.83375 270.888125 -214.7925 269.58875 -214.75 268.25 C-214.77435747 260.45561017 -216.85820942 254.00015436 -219.8671875 246.87890625 C-221.33508131 242.95883326 -222.19788292 238.94063505 -223.06640625 234.8515625 C-223.92714593 232.01569553 -225.10694836 230.53160857 -226.875 228.1875 C-227.72695178 225.98067008 -228.51307838 223.74785824 -229.25 221.5 C-231.27614275 215.63452969 -233.6573012 210.47296589 -236.875 205.1875 C-237.58646137 203.93927773 -238.29498336 202.68937365 -239 201.4375 C-240.11060278 199.51245518 -241.23156445 197.59322591 -242.375 195.6875 C-244.25848055 192.54836576 -246.06544927 189.36981336 -247.875 186.1875 C-248.535 186.1875 -249.195 186.1875 -249.875 186.1875 C-250.1225 185.465625 -250.37 184.74375 -250.625 184 C-251.98754204 180.93428041 -253.72870342 178.74920882 -255.875 176.1875 C-256.205 175.5275 -256.535 174.8675 -256.875 174.1875 C-257.535 174.1875 -258.195 174.1875 -258.875 174.1875 C-259.101875 173.671875 -259.32875 173.15625 -259.5625 172.625 C-261.35717618 169.29202995 -263.37465015 166.04046329 -265.875 163.1875 C-266.535 163.1875 -267.195 163.1875 -267.875 163.1875 C-267.875 162.5275 -267.875 161.8675 -267.875 161.1875 C-268.535 161.1875 -269.195 161.1875 -269.875 161.1875 C-269.875 160.5275 -269.875 159.8675 -269.875 159.1875 C-273.06909393 155.59414433 -276.60562398 152.83450241 -280.48046875 150.01171875 C-284.04883221 147.29324284 -287.44592746 144.37307128 -290.83813477 141.4387207 C-293.48316212 138.9388186 -293.48316212 138.9388186 -296.875 138.1875 C-296.875 137.5275 -296.875 136.8675 -296.875 136.1875 C-301.78649815 134.98543664 -304.60349125 135.45676818 -309.25 137.375 Z " fill="#FEFEFE" transform="translate(617.875,232.8125)"/>
<path d="M0 0 C0 0.66 0 1.32 0 2 C0.598125 2.12375 1.19625 2.2475 1.8125 2.375 C4 3 4 3 7 5 C7 5.66 7 6.32 7 7 C7.66 7 8.32 7 9 7 C9 7.66 9 8.32 9 9 C9.66 9 10.32 9 11 9 C18.23853398 17.81426927 21.30689064 28.76013017 21 40 C19.96311628 49.1624629 17.48356773 56.58105542 12 64 C11.19369141 65.09634766 11.19369141 65.09634766 10.37109375 66.21484375 C6.38605311 71.17996399 1.97585552 74.69409923 -4 77 C-7.5625 77.3125 -7.5625 77.3125 -10 77 C-10 77.66 -10 78.32 -10 79 C-17.23192788 80.56366008 -24.78621941 80.64364621 -32 79 C-32 78.34 -32 77.68 -32 77 C-34.97 76.67 -37.94 76.34 -41 76 C-41 75.34 -41 74.68 -41 74 C-42.175625 73.62875 -42.175625 73.62875 -43.375 73.25 C-46.43941457 71.79075497 -46.61725761 70.94985044 -48 68 C-50.0335948 66.73195434 -50.0335948 66.73195434 -52 66 C-52 65.34 -52 64.68 -52 64 C-52.66 64 -53.32 64 -54 64 C-54.79686606 62.46101439 -55.58723141 60.91866216 -56.375 59.375 C-56.81585938 58.51648438 -57.25671875 57.65796875 -57.7109375 56.7734375 C-62.38144968 46.72475978 -63.39575375 33.32306329 -60.30273438 22.57763672 C-58.44018183 17.9780405 -55.89852514 14.01172682 -53 10 C-52.4534375 9.22140625 -51.906875 8.4428125 -51.34375 7.640625 C-48.40676575 3.86003889 -45.35939224 1.85506053 -41 0 C-40.21625 -0.515625 -39.4325 -1.03125 -38.625 -1.5625 C-27.550924 -7.62687495 -10.50733967 -7.00489311 0 0 Z " fill="#FEFEFE" transform="translate(299,471)"/>
<path d="M0 0 C0 0.66 0 1.32 0 2 C0.66 2 1.32 2 2 2 C10.05111864 12.32194697 12.46018848 21.88461335 11 35 C9.43381315 39.0045069 7.45883848 42.48005563 5 46 C4.34 46 3.68 46 3 46 C2.67 46.99 2.34 47.98 2 49 C1.34 49 0.68 49 0 49 C0 49.66 0 50.32 0 51 C-9.52314524 56.65774162 -17.89992377 59.70543707 -28.9375 56.9375 C-36.46022713 54.5033356 -43.93260741 48.71469602 -48.265625 42.0546875 C-52.20470225 33.33244502 -53.18583495 21.89667102 -49.82421875 12.828125 C-48.37614902 10.35854872 -46.82065989 8.20487589 -45 6 C-44.61714844 5.42121094 -44.23429688 4.84242188 -43.83984375 4.24609375 C-40.00261369 -1.24155784 -33.49044436 -4.22277555 -27.10546875 -5.64453125 C-17.10049758 -6.78975436 -8.54416065 -5.33517865 0 0 Z " fill="#FEFEFE" transform="translate(576,446)"/>
<path d="M0 0 C1.155 0.5775 2.31 1.155 3.5 1.75 C11.46730535 6.51966486 16.3060435 13.11593011 19 22 C20.04100056 29.19777529 18.7900531 35.36384567 16 42 C15.608125 43.03125 15.21625 44.0625 14.8125 45.125 C10.14711949 52.52525873 2.17453934 57.98369738 -6.1875 60.375 C-13.10929835 61.73081617 -20.8523195 60.44620569 -27 57 C-27 56.34 -27 55.68 -27 55 C-28.12535156 54.86271484 -28.12535156 54.86271484 -29.2734375 54.72265625 C-33.96036965 53.48041779 -36.311461 49.86643851 -39 46 C-40.27693723 43.34896728 -41.12315033 40.82540449 -42 38 C-42.33 37.34 -42.66 36.68 -43 36 C-43.64307352 27.47136923 -43.95227964 19.34027209 -39 12 C-36.5 9.25 -36.5 9.25 -34 7 C-33.40316406 6.18660156 -32.80632812 5.37320313 -32.19140625 4.53515625 C-24.32647183 -4.56349337 -10.09001647 -5.43308579 0 0 Z " fill="#FEFEFE" transform="translate(511,516)"/>
</svg>
