<?xml version="1.0" encoding="UTF-8"?>
<svg version="1.1" xmlns="http://www.w3.org/2000/svg" width="1080" height="1080">
<path d="M0 0 C1.71123047 -0.01836914 1.71123047 -0.01836914 3.45703125 -0.03710938 C9.36028408 -0.04739379 14.22049338 0.34858006 19.875 2.1875 C22.61085163 2.53118625 25.31876839 2.82181104 28.0625 3.0625 C40.63716658 4.32891847 53.86604248 5.92658643 65.4609375 11.19140625 C68.53606428 12.46026924 71.66154202 13.26830724 74.875 14.125 C80.12536723 15.57396498 84.70592637 17.38615016 89.4921875 19.9609375 C92.77656407 21.6515838 96.18515642 22.92055432 99.6484375 24.1953125 C102.02144109 25.2527562 103.82363207 26.60786014 105.875 28.1875 C108.02233927 28.89264846 108.02233927 28.89264846 109.875 29.1875 C109.875 29.8475 109.875 30.5075 109.875 31.1875 C110.74769531 31.44402344 111.62039063 31.70054687 112.51953125 31.96484375 C115.92955965 33.20738029 118.55210398 34.73887072 121.5625 36.75 C124.39313309 38.6331736 126.64484475 40.11078158 129.875 41.1875 C129.875 41.8475 129.875 42.5075 129.875 43.1875 C131.525 43.8475 133.175 44.5075 134.875 45.1875 C134.875 45.8475 134.875 46.5075 134.875 47.1875 C135.58914063 47.27515625 136.30328125 47.3628125 137.0390625 47.453125 C140.45320242 48.33722735 142.45102708 49.8041854 145.25 51.9375 C146.67892578 53.01644531 146.67892578 53.01644531 148.13671875 54.1171875 C149.04035156 54.80039062 149.94398438 55.48359375 150.875 56.1875 C152.26735264 57.15088341 153.66254935 58.11019141 155.0625 59.0625 C155.990625 59.76375 156.91875 60.465 157.875 61.1875 C157.875 61.8475 157.875 62.5075 157.875 63.1875 C160.35 63.6825 160.35 63.6825 162.875 64.1875 C162.875 64.8475 162.875 65.5075 162.875 66.1875 C167.94288327 66.91315534 172.8670143 67.27910208 177.98217773 67.37695312 C191.18911649 67.66585855 204.20758657 69.11631314 217.3125 70.6875 C218.75021759 70.85795837 218.75021759 70.85795837 220.21697998 71.03186035 C222.95665022 71.35879781 225.69527915 71.69316251 228.43359375 72.03125 C229.2710463 72.13230042 230.10849884 72.23335083 230.97132874 72.33746338 C236.7582043 73.0707043 236.7582043 73.0707043 237.875 74.1875 C240.22697822 74.66273884 242.57360832 75.0927357 244.9375 75.5 C256.65313141 77.61411865 268.08828123 80.66367417 279.5625 83.8125 C280.31708496 84.01858887 281.07166992 84.22467773 281.84912109 84.43701172 C284.7540849 85.2457316 287.56981084 86.0652333 290.37109375 87.1875 C294.61272894 88.88150719 299.05330389 89.97257454 303.4609375 91.15625 C307.74206445 92.36413939 311.22903882 93.87003319 315.05908203 96.20507812 C317.76100828 97.66683548 320.6005156 98.50119738 323.5234375 99.41894531 C327.56602312 100.74017242 331.45957797 102.40818629 335.375 104.0625 C336.16519531 104.38863281 336.95539062 104.71476562 337.76953125 105.05078125 C342.68952762 107.12023962 347.33143155 109.4596425 351.94726562 112.14111328 C353.99139634 113.32332806 353.99139634 113.32332806 356.875 114.1875 C356.875 114.8475 356.875 115.5075 356.875 116.1875 C357.59429688 116.29835938 358.31359375 116.40921875 359.0546875 116.5234375 C367.68864423 118.5563636 376.84056048 124.90826879 383.875 130.1875 C383.875 130.8475 383.875 131.5075 383.875 132.1875 C384.761875 132.455625 385.64875 132.72375 386.5625 133 C389.6659666 134.1125635 392.18610685 135.28945778 394.875 137.1875 C394.875 137.8475 394.875 138.5075 394.875 139.1875 C395.43703125 139.29191406 395.9990625 139.39632812 396.578125 139.50390625 C399.29880471 140.31363235 401.26757807 141.54953338 403.625 143.125 C404.42421875 143.64964844 405.2234375 144.17429687 406.046875 144.71484375 C406.65015625 145.20082031 407.2534375 145.68679688 407.875 146.1875 C407.875 146.8475 407.875 147.5075 407.875 148.1875 C408.679375 148.5278125 408.679375 148.5278125 409.5 148.875 C412.62826956 150.60378055 415.13691899 152.89645262 417.875 155.1875 C418.64972656 155.64382813 419.42445313 156.10015625 420.22265625 156.5703125 C423.171918 158.3685369 425.72151413 160.41500404 428.375 162.625 C431.12950206 164.91139146 433.8678247 167.18204953 436.71875 169.34765625 C437.4303125 169.95480469 438.141875 170.56195313 438.875 171.1875 C438.875 171.8475 438.875 172.5075 438.875 173.1875 C439.4525 173.27 440.03 173.3525 440.625 173.4375 C443.5289336 174.40547787 444.91240604 175.87444284 446.875 178.1875 C446.875 178.8475 446.875 179.5075 446.875 180.1875 C447.73738281 180.55681641 447.73738281 180.55681641 448.6171875 180.93359375 C451.23139827 182.38543053 452.93836208 184.09037549 455 186.25 C457.65405 189.10321933 457.65405 189.10321933 460.875 191.1875 C460.875 191.8475 460.875 192.5075 460.875 193.1875 C461.535 193.1875 462.195 193.1875 462.875 193.1875 C464.10787842 194.62030465 465.33481612 196.05914515 466.515625 197.53515625 C469.14502296 200.73123481 472.18493505 203.53473586 475.1875 206.375 C476.875 208.1875 476.875 208.1875 476.875 210.1875 C477.865 210.5175 478.855 210.8475 479.875 211.1875 C480.5625 213.25 480.5625 213.25 480.875 215.1875 C481.535 215.1875 482.195 215.1875 482.875 215.1875 C484.26262135 216.80924676 485.58826061 218.48460326 486.875 220.1875 C487.46539063 220.9196875 488.05578125 221.651875 488.6640625 222.40625 C492.97333333 227.76074823 497.19884132 233.17322071 501.37353516 238.6328125 C503.26019913 241.09840012 505.15928673 243.52158526 507.171875 245.88671875 C508.875 248.1875 508.875 248.1875 508.875 251.1875 C509.535 251.1875 510.195 251.1875 510.875 251.1875 C513.62278884 254.76795212 515.34468862 257.6798533 515.875 262.1875 C516.535 262.1875 517.195 262.1875 517.875 262.1875 C519.00172175 264.58253687 520.12642558 266.9784871 521.25 269.375 C521.72566406 270.38530273 521.72566406 270.38530273 522.2109375 271.41601562 C524.94927845 277.26351454 527.06020495 282.40955664 527.9375 288.875 C528.43346189 293.17667745 528.43346189 293.17667745 529.875 297.1875 C532.01408244 321.41422914 524.53551226 345.15979983 510.875 365.1875 C510.215 365.1875 509.555 365.1875 508.875 365.1875 C508.76865234 365.98800781 508.76865234 365.98800781 508.66015625 366.8046875 C507.55861058 370.14768681 505.48025931 372.59860598 503.3125 375.3125 C502.86503418 375.88363525 502.41756836 376.45477051 501.95654297 377.04321289 C498.53297955 381.40141521 495.04850702 385.71122015 491.5625 390.01953125 C490.09665078 391.90274032 488.77664513 393.7989678 487.5 395.8125 C486.96375 396.59625 486.4275 397.38 485.875 398.1875 C485.215 398.1875 484.555 398.1875 483.875 398.1875 C483.875 398.8475 483.875 399.5075 483.875 400.1875 C483.215 400.1875 482.555 400.1875 481.875 400.1875 C481.64554688 400.89777344 481.41609375 401.60804688 481.1796875 402.33984375 C479.6066286 405.77325674 477.57974992 407.99801159 475 410.75 C474.13632812 411.67941406 473.27265625 412.60882812 472.3828125 413.56640625 C470.24161968 415.80431962 468.07213046 418.00482435 465.875 420.1875 C465.070625 421.05375 465.070625 421.05375 464.25 421.9375 C462.875 423.1875 462.875 423.1875 460.875 423.1875 C460.875 423.8475 460.875 424.5075 460.875 425.1875 C460.215 425.1875 459.555 425.1875 458.875 425.1875 C458.75125 426.0846875 458.75125 426.0846875 458.625 427 C457.65923221 429.81682273 456.38631433 430.66549132 453.875 432.1875 C453.215 432.1875 452.555 432.1875 451.875 432.1875 C451.606875 432.785625 451.33875 433.38375 451.0625 434 C449.87582594 436.18597854 448.77900887 437.60082594 446.875 439.1875 C446.215 439.1875 445.555 439.1875 444.875 439.1875 C444.545 440.1775 444.215 441.1675 443.875 442.1875 C443.215 442.1875 442.555 442.1875 441.875 442.1875 C441.545 443.1775 441.215 444.1675 440.875 445.1875 C439.09765625 446.79296875 439.09765625 446.79296875 436.9375 448.375 C436.22722656 448.90480469 435.51695312 449.43460938 434.78515625 449.98046875 C432.875 451.1875 432.875 451.1875 430.875 451.1875 C430.78863281 451.78433594 430.70226562 452.38117188 430.61328125 452.99609375 C429.66849786 455.80045079 428.47000153 456.57502212 426.0625 458.25 C425.37542969 458.73597656 424.68835938 459.22195313 423.98046875 459.72265625 C423.28566406 460.20605469 422.59085938 460.68945312 421.875 461.1875 C421.16988281 461.74308594 420.46476563 462.29867188 419.73828125 462.87109375 C417.875 464.1875 417.875 464.1875 415.875 464.1875 C415.875 464.8475 415.875 465.5075 415.875 466.1875 C410.97267632 470.71494011 400.447497 480.1875 393.875 480.1875 C393.875 480.8475 393.875 481.5075 393.875 482.1875 C392.4855957 483.28491211 392.4855957 483.28491211 390.55078125 484.46484375 C389.85146484 484.89603516 389.15214844 485.32722656 388.43164062 485.77148438 C387.69107422 486.21814453 386.95050781 486.66480469 386.1875 487.125 C385.46626953 487.56779297 384.74503906 488.01058594 384.00195312 488.46679688 C381.96453201 489.71529876 379.92047786 490.95225938 377.875 492.1875 C376.61042969 492.96480469 376.61042969 492.96480469 375.3203125 493.7578125 C371.4497892 496.02077021 367.46654871 498.06875498 363.49023438 500.13867188 C360.44337266 501.74407414 357.58527552 503.38280374 354.72265625 505.3125 C352.07906811 507.05313417 349.7120153 508.17754618 346.75 509.25 C343.28815117 510.50640308 340.79291976 511.96097488 337.875 514.1875 C335.875 515.13671875 335.875 515.13671875 333.875 515.875 C333.215 516.12636719 332.555 516.37773438 331.875 516.63671875 C329.875 517.1875 329.875 517.1875 325.875 517.1875 C325.875 517.8475 325.875 518.5075 325.875 519.1875 C318.95722951 521.71813868 312.06861385 524.17002101 305 526.25 C300.61393322 527.56157203 296.78033414 529.14880068 292.765625 531.31640625 C290.04445014 532.5701707 287.28564613 533.09413941 284.34375 533.59765625 C281.44652013 534.28987415 278.77167101 535.32947478 275.99414062 536.39624023 C272.6638793 537.63971684 269.28273394 538.67905601 265.875 539.6875 C265.153125 539.90180664 264.43125 540.11611328 263.6875 540.33691406 C257.78236094 542.03617934 251.84691831 543.27179459 245.7890625 544.28710938 C242.55124593 544.60661915 242.55124593 544.60661915 239.875 546.1875 C238.03927995 546.54415418 236.19294534 546.84652752 234.34375 547.125 C233.22355469 547.29773438 232.10335937 547.47046875 230.94921875 547.6484375 C227.375 548.1875 227.375 548.1875 223.80078125 548.7265625 C222.68058594 548.89929688 221.56039062 549.07203125 220.40625 549.25 C218.85260742 549.48396484 218.85260742 549.48396484 217.26757812 549.72265625 C214.93086461 549.94521256 214.93086461 549.94521256 213.875 551.1875 C212.328125 551.2803125 212.328125 551.2803125 210.75 551.375 C206.37789731 552.29173121 204.95002935 553.52277007 201.7890625 556.4609375 C183.78384063 572.70238253 157.9028426 586.43390357 135.390625 595.1171875 C132.82626705 596.12985098 132.82626705 596.12985098 130.4765625 597.6953125 C127.38705503 599.46737234 124.44158219 600.28380227 121 601.1875 C117.34123849 602.15244809 113.93980462 603.15962067 110.4609375 604.65625 C106.48771182 606.35287796 102.53656285 607.55643407 98.375 608.6875 C97.59108887 608.90253174 96.80717773 609.11756348 95.99951172 609.33911133 C85.5171785 612.15850482 74.89359822 614.10771566 64.16796875 615.7578125 C61.85646357 616.08225987 61.85646357 616.08225987 59.875 617.1875 C50.21096549 618.79434659 40.15379842 618.40779677 30.38769531 618.42773438 C27.51337903 618.43745475 24.63977485 618.46856706 21.765625 618.5 C8.57225669 618.57782583 -3.06950228 617.85357453 -14.9375 611.5 C-15.85112305 611.01950195 -15.85112305 611.01950195 -16.78320312 610.52929688 C-18.23757937 609.76202752 -19.68250137 608.97687331 -21.125 608.1875 C-21.125 607.5275 -21.125 606.8675 -21.125 606.1875 C-21.99511719 606.03474609 -21.99511719 606.03474609 -22.8828125 605.87890625 C-29.97371705 603.69233812 -35.16324301 596.10057014 -39.125 590.1875 C-39.846875 589.115 -40.56875 588.0425 -41.3125 586.9375 C-48.34445912 573.6974096 -48.30269611 554.77899369 -44.05078125 540.6328125 C-42.67180273 536.9904473 -40.99124804 533.59961016 -39.125 530.1875 C-35.88600262 522.80978375 -34.76206677 516.31277099 -34.75 508.3125 C-34.72550781 507.46558594 -34.70101563 506.61867188 -34.67578125 505.74609375 C-34.63170481 496.15212106 -38.59439246 489.71527137 -44.125 482.1875 C-44.125 481.5275 -44.125 480.8675 -44.125 480.1875 C-44.785 480.1875 -45.445 480.1875 -46.125 480.1875 C-47.81193662 478.54135286 -49.47489233 476.87056275 -51.125 475.1875 C-54.01458476 472.80485994 -56.95008948 470.4901047 -59.89453125 468.17578125 C-60.63058594 467.51964844 -61.36664063 466.86351562 -62.125 466.1875 C-62.125 465.5275 -62.125 464.8675 -62.125 464.1875 C-63.176875 463.8471875 -63.176875 463.8471875 -64.25 463.5 C-67.76490039 461.89537156 -70.22247612 459.7272084 -73.125 457.1875 C-74.07375 456.465625 -75.0225 455.74375 -76 455 C-76.70125 454.401875 -77.4025 453.80375 -78.125 453.1875 C-78.125 452.5275 -78.125 451.8675 -78.125 451.1875 C-79.053125 450.89875 -79.98125 450.61 -80.9375 450.3125 C-84.125 449.1875 -84.125 449.1875 -87.125 447.1875 C-87.125 446.5275 -87.125 445.8675 -87.125 445.1875 C-87.85332031 444.94128906 -88.58164062 444.69507813 -89.33203125 444.44140625 C-92.41396422 443.05776921 -94.35273713 441.42606849 -96.8125 439.125 C-99.73931801 436.32456887 -99.73931801 436.32456887 -103.125 434.1875 C-103.125 433.5275 -103.125 432.8675 -103.125 432.1875 C-104.115 431.8575 -105.105 431.5275 -106.125 431.1875 C-106.125 430.5275 -106.125 429.8675 -106.125 429.1875 C-106.723125 429.084375 -107.32125 428.98125 -107.9375 428.875 C-110.43758286 428.08925967 -111.50035082 427.21831147 -113.125 425.1875 C-113.125 424.5275 -113.125 423.8675 -113.125 423.1875 C-114.2078125 422.878125 -114.2078125 422.878125 -115.3125 422.5625 C-118.35009361 421.07745423 -119.82551849 419.34433082 -121.875 416.69921875 C-123.68481417 414.51047474 -125.88632012 412.92247691 -128.125 411.1875 C-131.75817918 407.73597978 -134.91987142 404.0336543 -138.125 400.1875 C-139.7709651 398.50038577 -141.43737149 396.8329378 -143.125 395.1875 C-144.79166667 393.52083333 -146.45833333 391.85416667 -148.125 390.1875 C-148.785 391.1775 -149.445 392.1675 -150.125 393.1875 C-150.785 393.1875 -151.445 393.1875 -152.125 393.1875 C-152.3725 394.01894531 -152.62 394.85039063 -152.875 395.70703125 C-154.29467185 399.65993006 -156.11680212 403.19694192 -158.125 406.875 C-158.48078125 407.53822266 -158.8365625 408.20144531 -159.203125 408.88476562 C-160.74396548 411.7393451 -162.32441688 414.48662532 -164.125 417.1875 C-164.785 417.1875 -165.445 417.1875 -166.125 417.1875 C-166.18816406 417.8371875 -166.25132812 418.486875 -166.31640625 419.15625 C-167.47020473 423.48160081 -169.70642495 426.9083938 -172.0625 430.6875 C-172.55395508 431.48269043 -173.04541016 432.27788086 -173.55175781 433.09716797 C-179.4953351 442.56914858 -186.22724615 451.31929985 -193.75 459.6015625 C-195.32459632 461.35045917 -195.32459632 461.35045917 -197.125 464.1875 C-198.115 464.1875 -199.105 464.1875 -200.125 464.1875 C-200.33125 464.909375 -200.5375 465.63125 -200.75 466.375 C-202.20853014 469.3583571 -203.82981257 470.82977099 -206.4921875 472.78125 C-208.28201253 474.2306726 -208.28201253 474.2306726 -209.97265625 476.546875 C-212.31435799 479.41981579 -214.81102949 481.60501507 -217.6875 483.9375 C-218.63753906 484.71609375 -219.58757812 485.4946875 -220.56640625 486.296875 C-223.125 488.1875 -223.125 488.1875 -226.125 489.1875 C-226.125 489.8475 -226.125 490.5075 -226.125 491.1875 C-227.91796875 492.5546875 -227.91796875 492.5546875 -230.3125 494.0625 C-233.75377299 496.27590094 -236.93745938 498.61975895 -240.125 501.1875 C-243.39502753 503.25278055 -246.77016503 505.12810186 -250.13671875 507.03125 C-251.52852938 507.840633 -252.90519591 508.67636593 -254.26953125 509.53125 C-260.56085431 513.45419771 -267.06778245 516.60892093 -273.8046875 519.671875 C-275.54615339 520.46680296 -277.28492019 521.27371343 -278.9699707 522.18212891 C-288.43945118 526.59986094 -299.07945722 526.6554807 -309.3125 526.5625 C-310.60091797 526.57410156 -311.88933594 526.58570313 -313.21679688 526.59765625 C-324.2105645 526.56398468 -332.50458689 524.35401815 -342.125 519.1875 C-342.125 518.5275 -342.125 517.8675 -342.125 517.1875 C-342.66125 517.105 -343.1975 517.0225 -343.75 516.9375 C-346.99840691 515.91168729 -349.41251859 514.22186106 -352.125 512.1875 C-352.125 511.5275 -352.125 510.8675 -352.125 510.1875 C-352.71796875 509.9296875 -353.3109375 509.671875 -353.921875 509.40625 C-356.30160965 508.08980105 -357.63478792 506.76169218 -359.375 504.6875 C-359.89578125 504.0790625 -360.4165625 503.470625 -360.953125 502.84375 C-362.125 501.1875 -362.125 501.1875 -362.125 499.1875 C-362.785 499.1875 -363.445 499.1875 -364.125 499.1875 C-369.36079246 490.84901571 -373.88830814 481.16497211 -374.125 471.1875 C-374.15207031 470.21296875 -374.17914063 469.2384375 -374.20703125 468.234375 C-374.36779826 455.89916096 -373.0617952 445.02878318 -369.66894531 433.15380859 C-368.94340455 430.53105039 -368.30556744 427.89044641 -367.66821289 425.24511719 C-365.544057 416.42916902 -362.92302934 407.81093469 -360.125 399.1875 C-359.465 399.1875 -358.805 399.1875 -358.125 399.1875 C-358.063125 398.07375 -358.00125 396.96 -357.9375 395.8125 C-357.38247096 391.15688325 -355.51414808 387.56071219 -353.28125 383.484375 C-352.2141458 381.36458692 -351.5924526 379.50351515 -351.125 377.1875 C-350.465 377.1875 -349.805 377.1875 -349.125 377.1875 C-349.06957031 376.22972656 -349.01414062 375.27195312 -348.95703125 374.28515625 C-348.21213994 369.09961691 -345.49216959 365.0379617 -342.8125 360.625 C-342.32587891 359.80064453 -341.83925781 358.97628906 -341.33789062 358.12695312 C-339.25389025 354.61809111 -337.13354118 351.1557815 -334.83203125 347.78515625 C-332.99938171 345.23851615 -332.99938171 345.23851615 -332.125 342.1875 C-331.465 342.1875 -330.805 342.1875 -330.125 342.1875 C-329.465 340.5375 -328.805 338.8875 -328.125 337.1875 C-327.465 337.1875 -326.805 337.1875 -326.125 337.1875 C-326.02058594 336.61515625 -325.91617188 336.0428125 -325.80859375 335.453125 C-325.01340501 332.81764232 -323.84598509 331.12718692 -322.1875 328.9375 C-321.40052734 327.87789062 -321.40052734 327.87789062 -320.59765625 326.796875 C-320.11167969 326.26578125 -319.62570312 325.7346875 -319.125 325.1875 C-318.465 325.1875 -317.805 325.1875 -317.125 325.1875 C-316.88523437 324.62933594 -316.64546875 324.07117188 -316.3984375 323.49609375 C-314.84795913 320.68525719 -312.93218126 318.6025509 -310.75 316.25 C-307.73550203 312.98849467 -304.86473034 309.68409649 -302.125 306.1875 C-302.970625 305.5275 -303.81625 304.8675 -304.6875 304.1875 C-307.90355972 301.50619494 -310.57854275 298.52227899 -313.28515625 295.3359375 C-314.49575478 293.92228742 -315.73249416 292.5305439 -316.99609375 291.1640625 C-321.13130532 286.68771677 -324.82964608 282.0101452 -328.375 277.0625 C-328.7872583 276.48870605 -329.1995166 275.91491211 -329.62426758 275.32373047 C-332.38835335 271.40546652 -334.78994426 267.37537171 -337.125 263.1875 C-337.8675 261.9809375 -337.8675 261.9809375 -338.625 260.75 C-340.25203073 257.97048917 -341.66458789 255.1266894 -343.078125 252.234375 C-344.07636564 250.28259106 -345.17052077 248.43269787 -346.3125 246.5625 C-348.07005789 243.289806 -348.76727104 240.85422187 -349.125 237.1875 C-349.785 237.1875 -350.445 237.1875 -351.125 237.1875 C-351.125 235.8675 -351.125 234.5475 -351.125 233.1875 C-351.785 233.1875 -352.445 233.1875 -353.125 233.1875 C-353.29515625 232.57003906 -353.4653125 231.95257813 -353.640625 231.31640625 C-354.84039543 227.12359149 -356.08488796 223.07827256 -357.9375 219.125 C-362.91691865 208.25040756 -366.37695885 197.06355013 -368.7902832 185.37304688 C-369.58115103 181.55268905 -370.45254156 177.91796484 -371.8125 174.25 C-374.56136279 166.48147471 -374.20751116 158.14369521 -374.25 150 C-374.25475342 149.25177979 -374.25950684 148.50355957 -374.2644043 147.73266602 C-374.240377 139.66572219 -373.42321948 132.85963538 -369.8125 125.5625 C-369.51666016 124.9334375 -369.22082031 124.304375 -368.91601562 123.65625 C-361.86620756 108.97803192 -350.2173565 97.45225175 -335.125 91.1875 C-322.6319425 86.94878406 -308.07025517 87.14351234 -295.125 89.1875 C-294.795 89.5175 -294.465 89.8475 -294.125 90.1875 C-292.68843075 90.36200733 -291.25064165 90.52646392 -289.8125 90.6875 C-283.76244831 91.72760075 -278.49501016 93.98840832 -272.9375 96.5 C-271.67329224 97.06847656 -271.67329224 97.06847656 -270.38354492 97.6484375 C-265.0239076 100.12979975 -260.080856 102.98665227 -255.125 106.1875 C-253.60670471 107.06689663 -252.0862493 107.94258788 -250.5625 108.8125 C-244.01383659 112.72350731 -237.95298496 117.30336894 -231.86230469 121.88183594 C-230.30100849 123.05522155 -228.7329519 124.21959899 -227.1640625 125.3828125 C-226.34679687 125.99898438 -225.52953125 126.61515625 -224.6875 127.25 C-223.98753906 127.77722656 -223.28757813 128.30445313 -222.56640625 128.84765625 C-222.09074219 129.28980469 -221.61507812 129.73195313 -221.125 130.1875 C-221.125 130.8475 -221.125 131.5075 -221.125 132.1875 C-220.53332031 132.46335937 -219.94164062 132.73921875 -219.33203125 133.0234375 C-213.54441392 136.07602151 -209.21020354 141.04314289 -205.0234375 145.96875 C-202.13649354 149.3427915 -199.13058287 152.60794399 -196.140625 155.890625 C-191.125 161.60610465 -191.125 161.60610465 -191.125 164.1875 C-190.135 164.5175 -189.145 164.8475 -188.125 165.1875 C-184.125 169.53035714 -184.125 169.53035714 -184.125 173.1875 C-183.465 173.1875 -182.805 173.1875 -182.125 173.1875 C-181.135 175.6625 -181.135 175.6625 -180.125 178.1875 C-179.465 178.1875 -178.805 178.1875 -178.125 178.1875 C-177.01513672 179.61767578 -177.01513672 179.61767578 -175.8046875 181.6328125 C-175.35520752 182.37394287 -174.90572754 183.11507324 -174.44262695 183.87866211 C-173.72852661 185.08341187 -173.72852661 185.08341187 -173 186.3125 C-172.26946411 187.52981812 -172.26946411 187.52981812 -171.52416992 188.77172852 C-170.04900781 191.2385556 -168.58595092 193.71223602 -167.125 196.1875 C-166.48280518 197.26572021 -166.48280518 197.26572021 -165.82763672 198.36572266 C-159.125 209.63624292 -159.125 209.63624292 -159.125 213.1875 C-158.465 213.1875 -157.805 213.1875 -157.125 213.1875 C-153.125 218.59926471 -153.125 218.59926471 -153.125 221.1875 C-150.155 222.1775 -150.155 222.1775 -147.125 223.1875 C-142.70001339 218.25142072 -138.54353168 213.2098587 -134.60546875 207.875 C-134.11691406 207.318125 -133.62835938 206.76125 -133.125 206.1875 C-132.465 206.1875 -131.805 206.1875 -131.125 206.1875 C-130.8775 205.61 -130.63 205.0325 -130.375 204.4375 C-128.94200012 201.85810021 -127.34075324 200.12628408 -125.125 198.1875 C-124.465 198.1875 -123.805 198.1875 -123.125 198.1875 C-122.91875 197.630625 -122.7125 197.07375 -122.5 196.5 C-120.95596234 193.90320939 -119.06588409 192.40274252 -116.70703125 190.5546875 C-115.06594687 189.13646643 -113.82414191 187.65109541 -112.5 185.9375 C-110.03837414 183.08719637 -109.54001539 182.89405491 -106.125 182.1875 C-105.85945313 181.60613281 -105.59390625 181.02476562 -105.3203125 180.42578125 C-103.76251797 177.50873464 -101.78332488 176.03168086 -99.1875 174 C-98.31222656 173.30519531 -97.43695313 172.61039063 -96.53515625 171.89453125 C-94.125 170.1875 -94.125 170.1875 -91.125 169.1875 C-91.125 168.5275 -91.125 167.8675 -91.125 167.1875 C-89.805 166.8575 -88.485 166.5275 -87.125 166.1875 C-87.125 165.5275 -87.125 164.8675 -87.125 164.1875 C-85.15301649 162.71151844 -83.18249893 161.34687002 -81.125 160 C-70.30186089 153.21438501 -70.30186089 153.21438501 -63.125 143.1875 C-62.14082972 135.4230931 -63.93870761 130.40327578 -68 123.875 C-68.91642241 122.33864479 -69.83055647 120.80092186 -70.7421875 119.26171875 C-71.16467773 118.55708496 -71.58716797 117.85245117 -72.02246094 117.12646484 C-73.29467179 114.88910909 -74.28082241 112.61814926 -75.125 110.1875 C-75.785 110.1875 -76.445 110.1875 -77.125 110.1875 C-77.455 108.2075 -77.785 106.2275 -78.125 104.1875 C-78.785 104.1875 -79.445 104.1875 -80.125 104.1875 C-88.90425377 89.15399907 -94.29927973 75.63824983 -94.3125 58.1875 C-94.32474609 57.33671875 -94.33699219 56.4859375 -94.34960938 55.609375 C-94.36836528 47.45680662 -92.81853628 40.99252592 -89 33.6875 C-88.46117187 32.6459375 -87.92234375 31.604375 -87.3671875 30.53125 C-86.75230469 29.37109375 -86.75230469 29.37109375 -86.125 28.1875 C-85.465 28.1875 -84.805 28.1875 -84.125 28.1875 C-84.07859375 27.63835937 -84.0321875 27.08921875 -83.984375 26.5234375 C-82.70681686 23.0508022 -80.14596403 21.11891889 -77.375 18.8125 C-76.79371338 18.32789307 -76.21242676 17.84328613 -75.61352539 17.34399414 C-67.12766227 10.5221602 -58.19860454 6.82734977 -47.390625 5.51171875 C-45.16140129 5.42383692 -45.16140129 5.42383692 -44.125 4.1875 C-36.85737779 2.95337547 -29.47005909 3.07391661 -22.125 3.1875 C-22.125 2.5275 -22.125 1.8675 -22.125 1.1875 C-14.72830499 0.20598527 -7.45707094 0.00424179 0 0 Z M-25.125 42.1875 C-26.30191406 42.31769531 -27.47882813 42.44789063 -28.69140625 42.58203125 C-36.98170137 43.73856525 -45.72665183 45.37718383 -52.125 51.1875 C-54.4604164 56.90988155 -53.46770024 64.67676255 -51.3203125 70.29150391 C-49.17069698 75.05827632 -46.66573784 79.62040682 -44.125 84.1875 C-43.44908454 85.5161687 -42.77661343 86.84674567 -42.125 88.1875 C-41.465 88.1875 -40.805 88.1875 -40.125 88.1875 C-40.0321875 89.2084375 -40.0321875 89.2084375 -39.9375 90.25 C-39.04671735 93.4705219 -37.51606945 95.52456394 -35.5234375 98.16796875 C-32.92162096 101.92534069 -31.06633369 106.06216591 -29.125 110.1875 C-28.58875 111.26 -28.0525 112.3325 -27.5 113.4375 C-25.76489722 118.16959849 -24.82815275 122.94071124 -23.87109375 127.8828125 C-23.25834934 131.10523427 -23.25834934 131.10523427 -22.03515625 133.6171875 C-18.48274331 143.6493236 -23.51888455 156.73829166 -27.125 166.1875 C-29.42488267 170.77537125 -32.54893321 174.52570559 -36.125 178.1875 C-36.7746875 178.85523438 -37.424375 179.52296875 -38.09375 180.2109375 C-43.19987261 185.00315913 -49.17515816 188.54641581 -55.125 192.1875 C-58.33470495 194.20842534 -60.9170146 195.97418164 -63.5625 198.6875 C-65.70822495 200.7808902 -67.12369668 201.83468463 -69.6875 203.1875 C-73.24994611 205.26019592 -74.65211202 206.96525202 -77.125 210.1875 C-80.57789319 213.43556054 -84.19653601 216.46536134 -87.9375 219.375 C-90.0935271 221.16142245 -91.62938301 222.82599949 -93.125 225.1875 C-93.125 225.8475 -93.125 226.5075 -93.125 227.1875 C-93.681875 227.414375 -94.23875 227.64125 -94.8125 227.875 C-97.7719509 229.55468835 -99.78626784 231.72883285 -102.125 234.1875 C-102.723125 234.744375 -103.32125 235.30125 -103.9375 235.875 C-105.34863777 237.13968271 -105.34863777 237.13968271 -105.125 239.1875 C-106.115 239.5175 -107.105 239.8475 -108.125 240.1875 C-109.39296755 241.65016144 -109.39296755 241.65016144 -110.5 243.4375 C-112.74838828 246.7431661 -115.29299023 249.35549023 -118.125 252.1875 C-119.26664732 253.6118148 -120.39015833 255.05076478 -121.5 256.5 C-122.70707403 258.06347305 -123.91540552 259.6259761 -125.125 261.1875 C-125.681875 261.90808594 -126.23875 262.62867188 -126.8125 263.37109375 C-132.12433997 269.87563853 -138.84787981 274.32937098 -147.125 276.1875 C-153.00738746 276.74488358 -157.79698668 276.32323994 -163.23046875 273.98828125 C-166.12159189 272.76626013 -169.09835913 272.00721524 -172.125 271.1875 C-172.125 270.5275 -172.125 269.8675 -172.125 269.1875 C-172.805625 268.56875 -173.48625 267.95 -174.1875 267.3125 C-180.44546221 261.28565571 -184.04291654 252.76963756 -187.03125 244.7578125 C-188.79464756 240.61382824 -191.15619888 236.8425137 -193.47265625 232.98828125 C-194.78314673 230.76695341 -195.96035823 228.57674374 -197.0625 226.25 C-201.70538683 215.88837413 -201.70538683 215.88837413 -209.125 208.1875 C-210.50647953 205.87017951 -211.83562544 203.55471111 -213.125 201.1875 C-214.70467575 198.30287471 -216.10315096 196.20934904 -218.4375 193.875 C-221.277053 191.035447 -223.49513727 188.04173677 -225.79296875 184.76171875 C-226.23253906 184.24222656 -226.67210937 183.72273437 -227.125 183.1875 C-227.785 183.1875 -228.445 183.1875 -229.125 183.1875 C-229.351875 182.630625 -229.57875 182.07375 -229.8125 181.5 C-231.49528092 178.53510028 -233.68608512 176.570985 -236.125 174.1875 C-237.13157739 172.9637138 -238.13138615 171.73433473 -239.125 170.5 C-241.57188429 167.5738291 -243.51820903 166.48995229 -247.125 165.1875 C-247.4240625 164.57261719 -247.723125 163.95773437 -248.03125 163.32421875 C-249.31198451 160.8222124 -250.59972885 159.810174 -252.875 158.1875 C-253.93847656 157.42566406 -253.93847656 157.42566406 -255.0234375 156.6484375 C-255.71695313 156.16632813 -256.41046875 155.68421875 -257.125 155.1875 C-257.71539062 154.76726562 -258.30578125 154.34703125 -258.9140625 153.9140625 C-261.75333479 151.80890799 -261.75333479 151.80890799 -265.125 151.1875 C-265.125 150.5275 -265.125 149.8675 -265.125 149.1875 C-266.775 148.5275 -268.425 147.8675 -270.125 147.1875 C-270.125 146.5275 -270.125 145.8675 -270.125 145.1875 C-270.8984375 144.80078125 -271.671875 144.4140625 -272.46875 144.015625 C-274.03109375 143.23445313 -274.03109375 143.23445313 -275.625 142.4375 C-276.72457031 141.88835937 -277.82414062 141.33921875 -278.95703125 140.7734375 C-280.76909164 139.86629013 -282.57986325 138.95653317 -284.38671875 138.0390625 C-295.30770751 132.50103575 -305.54272681 127.60506687 -318.125 129.1875 C-321.53046227 130.79038952 -321.53046227 130.79038952 -324.125 133.1875 C-325.011875 133.744375 -325.89875 134.30125 -326.8125 134.875 C-331.437976 139.500476 -332.29878349 145.31856016 -332.5 151.6875 C-332.07971443 165.52190009 -328.41913938 178.17735697 -323.83740234 191.11865234 C-322.7986546 194.13522136 -321.90126277 197.18998134 -321 200.25 C-319.41456242 205.4546537 -317.46133261 210.28200439 -315.125 215.1875 C-314.10354206 217.41638052 -313.08274944 219.64556604 -312.0625 221.875 C-310.15531968 226.01818484 -308.18187682 230.1164708 -306.125 234.1875 C-305.465 234.1875 -304.805 234.1875 -304.125 234.1875 C-304.08375 234.991875 -304.0425 235.79625 -304 236.625 C-302.80551526 241.48825931 -300.33578945 245.3549927 -297.125 249.1875 C-296.465 249.1875 -295.805 249.1875 -295.125 249.1875 C-295.0425 249.93 -294.96 250.6725 -294.875 251.4375 C-293.97690201 254.73052595 -292.74083926 256.04726788 -290.125 258.1875 C-289.465 258.1875 -288.805 258.1875 -288.125 258.1875 C-288.125 259.1775 -288.125 260.1675 -288.125 261.1875 C-285.81243506 263.91676391 -285.81243506 263.91676391 -283.125 266.1875 C-282.465 266.1875 -281.805 266.1875 -281.125 266.1875 C-281.125 266.8475 -281.125 267.5075 -281.125 268.1875 C-280.465 268.1875 -279.805 268.1875 -279.125 268.1875 C-278.795 269.1775 -278.465 270.1675 -278.125 271.1875 C-274.44758877 275.20966853 -270.30471628 278.72952361 -266.2109375 282.3203125 C-262.95270931 285.23685384 -260.42573562 288.03061213 -258 291.6875 C-257.22269531 292.84765625 -257.22269531 292.84765625 -256.4296875 294.03125 C-252.71530712 300.16998643 -253.59189178 308.25016968 -254.125 315.1875 C-255.14308235 318.07725339 -256.25187744 319.72902664 -258.125 322.1875 C-258.125 322.8475 -258.125 323.5075 -258.125 324.1875 C-258.785 324.1875 -259.445 324.1875 -260.125 324.1875 C-261.81232277 326.17010426 -263.47866057 328.1707342 -265.125 330.1875 C-265.785 330.5175 -266.445 330.8475 -267.125 331.1875 C-267.125 331.8475 -267.125 332.5075 -267.125 333.1875 C-267.785 333.1875 -268.445 333.1875 -269.125 333.1875 C-271.79166667 335.52083333 -271.79166667 335.52083333 -274.125 338.1875 C-274.125 338.8475 -274.125 339.5075 -274.125 340.1875 C-274.7025 340.414375 -275.28 340.64125 -275.875 340.875 C-278.74823323 342.55105272 -280.11774835 344.5308434 -282.125 347.1875 C-283.72328136 349.01410727 -285.33367137 350.82886334 -286.953125 352.63671875 C-288.32596332 354.129481 -288.32596332 354.129481 -288.125 356.1875 C-288.785 356.1875 -289.445 356.1875 -290.125 356.1875 C-291.73864762 358.16339278 -291.73864762 358.16339278 -293.375 360.6875 C-295.55294097 363.90706491 -297.76065429 367.02734204 -300.1875 370.0625 C-305.37226152 376.88748099 -311.125 386.48539062 -311.125 395.1875 C-311.785 395.1875 -312.445 395.1875 -313.125 395.1875 C-313.46273437 396.07953125 -313.80046875 396.9715625 -314.1484375 397.890625 C-314.59445312 399.06109375 -315.04046875 400.2315625 -315.5 401.4375 C-315.94085938 402.59765625 -316.38171875 403.7578125 -316.8359375 404.953125 C-318.125 408.1875 -318.125 408.1875 -319.2890625 410.359375 C-320.4022344 412.45875795 -320.4022344 412.45875795 -320.125 416.1875 C-320.785 416.1875 -321.445 416.1875 -322.125 416.1875 C-322.37894531 417.2496875 -322.63289063 418.311875 -322.89453125 419.40625 C-326.01368434 432.27085458 -326.01368434 432.27085458 -327.75 436.625 C-331.916246 447.41936462 -334.87019701 463.51058785 -330.140625 474.49609375 C-327.22821639 479.34637424 -322.74434338 483.07445462 -317.30859375 484.74609375 C-307.44901816 486.73917432 -298.43780991 484.27340151 -289.125 481.1875 C-289.125 480.5275 -289.125 479.8675 -289.125 479.1875 C-288.25617188 479.08566406 -287.38734375 478.98382812 -286.4921875 478.87890625 C-282.90415302 478.14215207 -280.41660378 476.94000461 -277.25 475.125 C-276.28320312 474.57714844 -275.31640625 474.02929688 -274.3203125 473.46484375 C-273.59585938 473.04332031 -272.87140625 472.62179687 -272.125 472.1875 C-272.125 471.5275 -272.125 470.8675 -272.125 470.1875 C-271.2175 470.105 -270.31 470.0225 -269.375 469.9375 C-265.55294383 469.05548704 -264.77087781 467.98901768 -262.125 465.1875 C-260.02907103 463.83607089 -257.89802678 462.57569418 -255.734375 461.3359375 C-255.20328125 460.95695312 -254.6721875 460.57796875 -254.125 460.1875 C-254.125 459.5275 -254.125 458.8675 -254.125 458.1875 C-253.55652344 457.92582031 -252.98804688 457.66414063 -252.40234375 457.39453125 C-243.81646625 452.84386891 -237.24268188 445.56009098 -231.125 438.1875 C-230.50238281 437.57261719 -229.87976563 436.95773437 -229.23828125 436.32421875 C-226.95258018 434.01316795 -224.91445577 431.59293587 -222.875 429.0625 C-221.81539062 427.75925781 -221.81539062 427.75925781 -220.734375 426.4296875 C-218.93062967 424.37669926 -218.93062967 424.37669926 -219.125 422.1875 C-218.135 421.8575 -217.145 421.5275 -216.125 421.1875 C-213.76069853 419.18784204 -212.51665244 417.2398284 -211.25 414.4375 C-209.5748596 410.9331833 -207.59357494 407.94879283 -205.28125 404.83984375 C-203.59941555 402.43641141 -202.41248515 399.81844791 -201.125 397.1875 C-200.526875 396.32125 -199.92875 395.455 -199.3125 394.5625 C-195.15354754 388.48527102 -191.24097437 381.51528352 -190.125 374.1875 C-189.465 374.1875 -188.805 374.1875 -188.125 374.1875 C-187.77308594 373.32769531 -187.42117188 372.46789062 -187.05859375 371.58203125 C-176.08150903 345.30008167 -176.08150903 345.30008167 -164.5625 339.875 C-157.768759 337.37850481 -150.30487993 336.5957434 -143.4375 339.2109375 C-140.40073189 340.85918335 -137.71765365 342.72145376 -135.00390625 344.85546875 C-133.23693145 346.38028223 -133.23693145 346.38028223 -131.125 346.1875 C-130.898125 346.72375 -130.67125 347.26 -130.4375 347.8125 C-127.84801716 352.49823086 -124.10411382 356.62001864 -120.125 360.1875 C-119.465 360.1875 -118.805 360.1875 -118.125 360.1875 C-117.898125 360.744375 -117.67125 361.30125 -117.4375 361.875 C-115.74949964 364.84909588 -113.65823483 366.90758865 -111.125 369.1875 C-110.465 369.1875 -109.805 369.1875 -109.125 369.1875 C-109.125 369.8475 -109.125 370.5075 -109.125 371.1875 C-108.465 371.1875 -107.805 371.1875 -107.125 371.1875 C-106.856875 371.826875 -106.58875 372.46625 -106.3125 373.125 C-105.23832248 375.51881686 -105.23832248 375.51881686 -102.125 376.1875 C-101.45833333 377.52083333 -100.79166667 378.85416667 -100.125 380.1875 C-97.70833229 382.93791666 -97.70833229 382.93791666 -95.125 385.1875 C-94.465 385.1875 -93.805 385.1875 -93.125 385.1875 C-92.795 386.1775 -92.465 387.1675 -92.125 388.1875 C-90.56652856 389.84649675 -90.56652856 389.84649675 -88.6875 391.375 C-88.07003906 391.90480469 -87.45257813 392.43460938 -86.81640625 392.98046875 C-85.19999198 394.3811275 -85.19999198 394.3811275 -83.125 394.1875 C-83.125 394.8475 -83.125 395.5075 -83.125 396.1875 C-79.64501493 399.82383539 -79.64501493 399.82383539 -75.125 401.1875 C-74.795 402.1775 -74.465 403.1675 -74.125 404.1875 C-72.9803125 404.868125 -72.9803125 404.868125 -71.8125 405.5625 C-69.125 407.1875 -69.125 407.1875 -67.1875 409.625 C-64.81012881 412.5787036 -62.31824762 414.16728212 -59.125 416.1875 C-57.45617191 417.51812705 -55.78974855 418.85177255 -54.125 420.1875 C-52.31941327 421.50949436 -50.50673913 422.82185708 -48.6875 424.125 C-45.55069537 426.38671224 -42.48803157 428.65828428 -39.5625 431.1875 C-37.3928088 433.39893887 -37.3928088 433.39893887 -35.125 433.1875 C-35.125 433.8475 -35.125 434.5075 -35.125 435.1875 C-33.0439885 436.83146866 -33.0439885 436.83146866 -30.4375 438.5 C-26.58406116 441.1196862 -23.29049829 443.74269303 -20.125 447.1875 C-19.196875 448.0846875 -19.196875 448.0846875 -18.25 449 C-1.48823486 466.25475823 6.39848833 485.32776348 7.375 509.4375 C7.0600658 517.49748263 4.82706382 525.39783582 2.875 533.1875 C2.62492187 534.24710938 2.37484375 535.30671875 2.1171875 536.3984375 C0.92748174 541.17093533 -0.62587602 545.33989883 -2.8125 549.75 C-5.35032119 555.02319732 -5.68864388 559.41328154 -5.125 565.1875 C-4.465 565.1875 -3.805 565.1875 -3.125 565.1875 C-3.063125 566.2703125 -3.063125 566.2703125 -3 567.375 C-1.77825401 571.30204069 0.38102502 573.23518257 3.875 575.1875 C6.75628094 576.15727745 9.62120916 576.92211265 12.58203125 577.609375 C14.875 578.1875 14.875 578.1875 15.875 579.1875 C18.90839961 579.43978862 21.95736053 579.37273613 25 579.375 C25.84304688 579.38724609 26.68609375 579.39949219 27.5546875 579.41210938 C32.72791426 579.42415882 36.89612319 578.71465834 41.875 577.1875 C44.75978793 576.73406731 47.65585955 576.46158223 50.5625 576.1875 C64.67425117 574.74704384 64.67425117 574.74704384 78.3203125 571.04296875 C82.91733215 569.50359979 87.63266007 568.3654259 92.32421875 567.15234375 C98.83713425 565.38260764 105.05961903 562.99380923 111.34375 560.55078125 C113.71260231 559.63625751 116.08778556 558.7379784 118.46875 557.85546875 C119.6134375 557.42878906 120.758125 557.00210938 121.9375 556.5625 C123.50177734 555.98628906 123.50177734 555.98628906 125.09765625 555.3984375 C127.75425755 554.24014439 129.57976555 552.92313443 131.875 551.1875 C134.10378247 550.08118406 136.35590798 549.02109141 138.625 548 C139.79546875 547.47019531 140.9659375 546.94039062 142.171875 546.39453125 C143.06390625 545.99621094 143.9559375 545.59789062 144.875 545.1875 C144.875 544.5275 144.875 543.8675 144.875 543.1875 C145.720625 542.919375 146.56625 542.65125 147.4375 542.375 C153.88148293 540.14889681 158.14977502 538.17523748 162.875 533.1875 C163.865 532.8575 164.855 532.5275 165.875 532.1875 C165.875 531.5275 165.875 530.8675 165.875 530.1875 C166.9578125 529.7853125 166.9578125 529.7853125 168.0625 529.375 C170.87266383 528.18848638 173.35916557 526.91264361 175.875 525.1875 C175.875 524.5275 175.875 523.8675 175.875 523.1875 C177.195 522.8575 178.515 522.5275 179.875 522.1875 C179.875 521.5275 179.875 520.8675 179.875 520.1875 C180.49375 520.043125 181.1125 519.89875 181.75 519.75 C183.90758322 519.25597775 183.90758322 519.25597775 185.875 518.1875 C185.875 517.5275 185.875 516.8675 185.875 516.1875 C186.45765625 516.0534375 187.0403125 515.919375 187.640625 515.78125 C189.73358188 515.22507964 191.62645222 514.51334619 193.625 513.6875 C197.71217495 512.10784139 201.53071491 511.64479317 205.875 511.1875 C206.205 510.8575 206.535 510.5275 206.875 510.1875 C209.20833333 509.85416667 211.54166667 509.52083333 213.875 509.1875 C214.205 508.8575 214.535 508.5275 214.875 508.1875 C216.70095651 507.85274131 218.5368163 507.5718477 220.375 507.3125 C222.87502033 506.93763477 225.37503962 506.56276468 227.875 506.1875 C228.93968506 506.02894531 228.93968506 506.02894531 230.02587891 505.8671875 C241.95580825 504.10914272 241.95580825 504.10914272 252.875 499.1875 C251.59437515 497.4800002 250.25732443 495.81376404 248.875 494.1875 C248.215 494.1875 247.555 494.1875 246.875 494.1875 C246.545 493.1975 246.215 492.2075 245.875 491.1875 C245.215 491.1875 244.555 491.1875 243.875 491.1875 C243.648125 490.300625 243.42125 489.41375 243.1875 488.5 C241.66403012 484.65505221 239.8864458 482.99361995 236.875 480.1875 C235.77603037 478.9722932 234.69296825 477.74253999 233.625 476.5 C233.12484375 475.91863281 232.6246875 475.33726562 232.109375 474.73828125 C230.875 473.1875 230.875 473.1875 229.875 471.1875 C229.215 471.1875 228.555 471.1875 227.875 471.1875 C227.6275 470.445 227.38 469.7025 227.125 468.9375 C226.04812336 466.14117121 226.04812336 466.14117121 224 464.3125 C221.83905508 462.15155508 220.51921778 459.96172125 219.0625 457.29296875 C217.64683479 454.78295708 216.11432294 452.36568724 214.5625 449.9375 C213.96050781 448.99390625 213.35851562 448.0503125 212.73828125 447.078125 C211.51810272 445.18518556 210.28670832 443.29941788 209.04296875 441.421875 C204.9823642 435.2292319 201.81558038 428.97345473 198.875 422.1875 C197.90512987 420.16985852 196.89767154 418.17901827 195.875 416.1875 C195.215 416.1875 194.555 416.1875 193.875 416.1875 C193.76671875 415.15496094 193.6584375 414.12242187 193.546875 413.05859375 C192.88692617 409.25621418 191.86629936 406.66528046 190.125 403.25 C187.07206928 396.9098609 184.97096443 390.5153018 182.96875 383.78125 C182.14325355 381.06890453 181.26011537 378.4921815 180.1875 375.875 C178.71767692 371.74549705 177.9821521 367.73047872 177.3046875 363.41015625 C177.09705447 361.22287496 177.09705447 361.22287496 175.875 360.1875 C175.33516612 357.56461147 174.838107 354.94900025 174.375 352.3125 C173.39795698 346.68593124 173.39795698 346.68593124 171.875 341.1875 C169.59778947 321.18846451 169.24308444 301.23687225 170.6875 281.1875 C170.75743164 280.16052002 170.82736328 279.13354004 170.89941406 278.07543945 C171.39457184 271.98904288 172.44736718 266.38862673 174.20556641 260.53808594 C175.08266931 257.45830958 175.44831937 254.35712757 175.875 251.1875 C176.51738957 248.84736656 177.18820058 246.51498694 177.875 244.1875 C178.31398359 242.31284679 178.75132443 240.43780854 179.1875 238.5625 C180.57017257 232.96896097 182.47632725 227.7166874 184.61328125 222.37109375 C186.15005442 218.49347724 187.52437917 214.56806311 188.8828125 210.625 C189.96894132 207.95671502 191.38297385 205.64775588 192.875 203.1875 C193.58555208 201.2496307 194.29500225 199.31130322 194.98828125 197.3671875 C196.2843912 194.18115511 198.02156566 191.28537384 199.734375 188.30859375 C201.13993875 185.6948228 202.07055561 183.039621 202.875 180.1875 C203.535 180.1875 204.195 180.1875 204.875 180.1875 C205.225625 179.424375 205.57625 178.66125 205.9375 177.875 C210.15113389 169.48711198 215.72644225 161.86785057 221.37109375 154.40234375 C223.06225039 152.35792711 223.06225039 152.35792711 222.875 150.1875 C223.535 150.1875 224.195 150.1875 224.875 150.1875 C224.875 149.5275 224.875 148.8675 224.875 148.1875 C226.36 147.6925 226.36 147.6925 227.875 147.1875 C228.184375 146.218125 228.49375 145.24875 228.8125 144.25 C230.09167993 140.56295197 230.58086743 140.79264096 233.875 139.1875 C235.66735133 137.42246348 235.66735133 137.42246348 237.3125 135.375 C241.4743629 130.46772882 245.76974243 126.12584155 250.875 122.1875 C250.22108221 119.0766846 250.22108221 119.0766846 247.875 118.125 C240.52791772 115.82903679 233.18154707 114.76215759 225.54760742 113.97265625 C222.71069154 113.65694334 220.20042824 113.32828811 217.56860352 112.18969727 C214.34092542 110.98878921 211.54234294 110.78488865 208.10546875 110.58984375 C206.80416016 110.51056641 205.50285156 110.43128906 204.16210938 110.34960938 C202.79559707 110.27430009 201.42906029 110.19943351 200.0625 110.125 C184.92222247 109.25399492 184.92222247 109.25399492 180.62109375 108.65625 C174.71368679 107.91705413 168.77971217 107.83314471 162.83203125 107.66992188 C155.02077036 107.38519228 149.54473498 105.79202509 142.75 101.8125 C141.73679687 101.22726562 140.72359375 100.64203125 139.6796875 100.0390625 C137.02410388 98.28593348 135.06626205 96.47423198 132.875 94.1875 C131.56297686 93.13941901 130.2297437 92.11724392 128.875 91.125 C128.215 90.63902344 127.555 90.15304687 126.875 89.65234375 C126.215 89.16894531 125.555 88.68554688 124.875 88.1875 C124.17375 87.63191406 123.4725 87.07632813 122.75 86.50390625 C120.98401856 84.99596463 120.98401856 84.99596463 118.875 85.1875 C118.875 84.5275 118.875 83.8675 118.875 83.1875 C116.56823886 81.46689341 116.56823886 81.46689341 113.6875 79.75 C112.72457031 79.15316406 111.76164062 78.55632812 110.76953125 77.94140625 C109.33673828 77.07322266 109.33673828 77.07322266 107.875 76.1875 C106.55048828 75.33478516 106.55048828 75.33478516 105.19921875 74.46484375 C102.87882991 72.94668199 102.87882991 72.94668199 99.875 73.1875 C99.875 72.5275 99.875 71.8675 99.875 71.1875 C97.05990007 68.9101499 97.05990007 68.9101499 93.875 69.1875 C93.875 68.5275 93.875 67.8675 93.875 67.1875 C92.86179687 66.80658203 92.86179687 66.80658203 91.828125 66.41796875 C90.93609375 66.07378906 90.0440625 65.72960937 89.125 65.375 C88.24328125 65.03855469 87.3615625 64.70210937 86.453125 64.35546875 C83.875 63.1875 83.875 63.1875 81.89453125 61.66796875 C79.45422667 59.87904141 77.2058193 59.18319263 74.3125 58.3125 C70.23463145 57.02371645 66.45874201 55.5782714 62.625 53.6875 C57.41015231 51.22009746 52.17305679 49.87314161 46.58276367 48.57299805 C43.08685907 47.75676993 39.7556707 46.87372267 36.4375 45.5 C32.77240472 44.14970174 29.62288546 43.68124772 25.7578125 43.3984375 C23.875 43.1875 23.875 43.1875 21.875 42.1875 C14.28960476 40.95992812 6.59839596 41.03572925 -1.0625 41.0625 C-2.16529297 41.05863281 -3.26808594 41.05476563 -4.40429688 41.05078125 C-11.36723978 41.05899711 -18.20551884 41.41624491 -25.125 42.1875 Z M296.875 136.1875 C296.875 136.8475 296.875 137.5075 296.875 138.1875 C295.823125 138.51427734 295.823125 138.51427734 294.75 138.84765625 C291.17806715 140.51229343 288.66351583 142.91079741 285.875 145.625 C282.41909068 148.96249619 279.06622176 151.79658232 274.875 154.1875 C272.08254907 156.64567955 272.08254907 156.64567955 269.875 159.1875 C269.875 159.8475 269.875 160.5075 269.875 161.1875 C269.215 161.1875 268.555 161.1875 267.875 161.1875 C267.875 161.8475 267.875 162.5075 267.875 163.1875 C267.215 163.1875 266.555 163.1875 265.875 163.1875 C264.05871224 165.13125954 264.05871224 165.13125954 262.25 167.5625 C261.61835937 168.37460937 260.98671875 169.18671875 260.3359375 170.0234375 C258.68849192 172.02859879 258.68849192 172.02859879 258.875 174.1875 C258.215 174.1875 257.555 174.1875 256.875 174.1875 C255.49058 176.15248322 254.16296166 178.15798465 252.875 180.1875 C252.00875 181.30125 252.00875 181.30125 251.125 182.4375 C249.68125394 184.10031427 249.68125394 184.10031427 249.875 186.1875 C248.885 186.5175 247.895 186.8475 246.875 187.1875 C245.55125823 189.34038922 245.55125823 189.34038922 244.4375 191.9375 C243.04885551 194.87693608 241.85893938 197.2074541 239.8125 199.75 C237.55910106 202.58492125 236.3460616 205.40667684 234.9453125 208.7265625 C233.82973185 211.29158371 232.59073959 213.76240799 231.3125 216.25 C229.49716322 219.83639705 227.96803357 223.40258722 226.625 227.1875 C225.51949315 230.13551828 224.180197 232.96882847 222.83984375 235.81640625 C221.5928208 238.88095252 220.75053962 241.99754945 219.875 245.1875 C219.53339844 246.37730469 219.19179688 247.56710937 218.83984375 248.79296875 C218.50082031 249.97503906 218.16179688 251.15710938 217.8125 252.375 C217.47089844 253.56480469 217.12929688 254.75460937 216.77734375 255.98046875 C216.47957031 257.03878906 216.18179688 258.09710938 215.875 259.1875 C215.67132812 259.89003906 215.46765625 260.59257812 215.2578125 261.31640625 C214.79835048 263.56214408 214.77882185 265.64738606 214.8125 267.9375 C214.82152344 268.73671875 214.83054687 269.5359375 214.83984375 270.359375 C214.85724609 271.26429688 214.85724609 271.26429688 214.875 272.1875 C214.215 272.1875 213.555 272.1875 212.875 272.1875 C210.2794665 295.97873995 210.02084883 319.41140141 212.875 343.1875 C213.535 343.1875 214.195 343.1875 214.875 343.1875 C214.7925 344.21875 214.71 345.25 214.625 346.3125 C214.625 352.87620517 216.9127355 358.99052035 218.875 365.1875 C219.19855469 366.23808594 219.52210938 367.28867187 219.85546875 368.37109375 C221.77728064 374.40322983 224.08151525 380.1063181 226.82421875 385.8125 C227.76710062 387.94362333 228.39601523 389.91363824 228.875 392.1875 C229.535 392.1875 230.195 392.1875 230.875 392.1875 C230.96265625 393.02667969 231.0503125 393.86585938 231.140625 394.73046875 C231.99292046 398.74260431 233.63864001 401.96149912 235.625 405.5 C236.165802 406.48794556 236.165802 406.48794556 236.7175293 407.49584961 C237.76125062 409.39808952 238.81610401 411.29367521 239.875 413.1875 C240.38160156 414.10015625 240.88820313 415.0128125 241.41015625 415.953125 C242.21900088 417.40756121 243.02993887 418.8608369 243.84375 420.3125 C245.266337 422.89902182 246.58232304 425.53411045 247.875 428.1875 C248.535 428.1875 249.195 428.1875 249.875 428.1875 C250.10832031 428.88359375 250.34164062 429.5796875 250.58203125 430.296875 C252.12317156 433.74232464 254.22669821 436.50872041 256.5625 439.4375 C257.46361501 440.58327565 258.36465627 441.72910931 259.265625 442.875 C259.92981445 443.71417969 259.92981445 443.71417969 260.60742188 444.5703125 C262.92756992 447.53037811 265.15994121 450.55887047 267.40234375 453.578125 C268.88587569 455.46135411 268.88587569 455.46135411 271.875 456.1875 C272.308125 457.30125 272.308125 457.30125 272.75 458.4375 C274.16719833 461.90176259 276.14489611 463.64786847 278.875 466.1875 C281.85475659 469.08884195 284.59777602 472.05312288 287.25 475.25 C291.20353989 479.81508963 295.73312966 483.26908948 301.875 484.1875 C304.26818762 483.67054561 304.26818762 483.67054561 306.625 482.75 C307.82382812 482.31880859 307.82382812 482.31880859 309.046875 481.87890625 C309.65015625 481.65074219 310.2534375 481.42257812 310.875 481.1875 C310.875 480.5275 310.875 479.8675 310.875 479.1875 C311.926875 479.084375 312.97875 478.98125 314.0625 478.875 C317.89324987 478.18420904 319.63254356 477.19888927 322.875 475.1875 C324.73700782 474.28518249 326.61244619 473.41007926 328.5 472.5625 C329.44101562 472.13710938 330.38203125 471.71171875 331.3515625 471.2734375 C333.875 470.1875 333.875 470.1875 336.875 469.1875 C336.875 468.5275 336.875 467.8675 336.875 467.1875 C337.65875 466.98125 338.4425 466.775 339.25 466.5625 C343.26442055 465.03978876 346.62665486 463.02980305 350.26953125 460.78125 C354.69814314 458.072294 359.23064703 455.50967648 363.875 453.1875 C363.875 452.5275 363.875 451.8675 363.875 451.1875 C364.535 450.960625 365.195 450.73375 365.875 450.5 C369.76158628 448.7996185 373.51179817 446.79126916 376.875 444.1875 C376.875 443.5275 376.875 442.8675 376.875 442.1875 C377.555625 441.960625 378.23625 441.73375 378.9375 441.5 C382.5738709 439.87523854 385.90329263 437.85946743 388.875 435.1875 C388.875 434.5275 388.875 433.8675 388.875 433.1875 C389.535 433.1875 390.195 433.1875 390.875 433.1875 C390.875 432.5275 390.875 431.8675 390.875 431.1875 C391.46128174 430.91510498 392.04756348 430.64270996 392.65161133 430.36206055 C394.83143194 429.21051591 396.55316489 427.96240706 398.44921875 426.39453125 C399.44489868 425.57734619 399.44489868 425.57734619 400.46069336 424.74365234 C401.15428955 424.16824707 401.84788574 423.5928418 402.5625 423 C407.74755437 418.72857277 412.94941841 414.52578177 418.37109375 410.5546875 C420.15786207 409.15433209 420.15786207 409.15433209 420.875 406.1875 C422.2578125 404.86328125 422.2578125 404.86328125 424 403.5 C429.20443087 399.19695509 434.04885769 394.39122702 436.875 388.1875 C437.535 388.1875 438.195 388.1875 438.875 388.1875 C440.68567374 386.47418011 440.68567374 386.47418011 442.5 384.3125 C443.13164063 383.59320312 443.76328125 382.87390625 444.4140625 382.1328125 C446.07517123 380.32643067 446.07517123 380.32643067 445.875 378.1875 C446.535 378.1875 447.195 378.1875 447.875 378.1875 C449.51788946 376.37430717 449.51788946 376.37430717 451.1875 374.0625 C451.80882812 373.24136719 452.43015625 372.42023438 453.0703125 371.57421875 C453.66585937 370.78660156 454.26140625 369.99898437 454.875 369.1875 C457.15743094 366.3251071 459.4583323 363.58101949 462.125 361.0625 C463.98756383 359.0668959 464.49395328 357.85482705 464.875 355.1875 C465.535 355.1875 466.195 355.1875 466.875 355.1875 C467.535 353.5375 468.195 351.8875 468.875 350.1875 C469.535 350.1875 470.195 350.1875 470.875 350.1875 C473.0763866 346.38322508 473.0763866 346.38322508 473.875 342.1875 C474.535 342.1875 475.195 342.1875 475.875 342.1875 C476.535 340.2075 477.195 338.2275 477.875 336.1875 C478.535 336.1875 479.195 336.1875 479.875 336.1875 C480.10574219 335.60484375 480.33648438 335.0221875 480.57421875 334.421875 C480.90035156 333.60203125 481.22648437 332.7821875 481.5625 331.9375 C481.92214844 331.01710938 482.28179688 330.09671875 482.65234375 329.1484375 C483.45345783 327.20835932 484.31945491 325.29355387 485.25390625 323.4140625 C489.3860432 314.82015943 491.16531962 305.33772583 488.19824219 296.07470703 C486.42609631 291.59228164 484.21241673 287.39696543 481.875 283.1875 C481.20147825 281.85761629 480.53104287 280.52609253 479.875 279.1875 C479.215 279.1875 478.555 279.1875 477.875 279.1875 C477.215 276.8775 476.555 274.5675 475.875 272.1875 C475.215 272.1875 474.555 272.1875 473.875 272.1875 C473.606875 271.630625 473.33875 271.07375 473.0625 270.5 C471.25308063 266.97639387 469.56864479 263.88114479 466.75 261.0625 C464.875 259.1875 464.875 259.1875 463.875 256.1875 C463.215 256.1875 462.555 256.1875 461.875 256.1875 C461.875 255.1975 461.875 254.2075 461.875 253.1875 C460.76125 252.5378125 460.76125 252.5378125 459.625 251.875 C456.25626975 249.80782462 454.97230906 247.50260142 452.875 244.1875 C451.58396357 242.8131709 450.2493291 241.47853643 448.875 240.1875 C444.17189609 235.71381579 444.17189609 235.71381579 442.5 232.75 C440.59132574 229.74016752 438.36558638 227.95837131 435.62890625 225.71875 C433.875 224.1875 433.875 224.1875 431.4375 221.25 C428.76692754 218.05834023 425.90957255 215.48135031 422.7421875 212.80078125 C420.20606328 210.60952748 417.92933815 208.24485694 415.625 205.8125 C413.07466649 203.37809074 410.53975477 201.44411462 407.62109375 199.49609375 C405.49996101 197.90643051 403.74722474 196.06321119 401.875 194.1875 C400.22658249 192.81117705 398.55911625 191.45740294 396.875 190.125 C396.029375 189.45339844 395.18375 188.78179687 394.3125 188.08984375 C393.1059375 187.14818359 393.1059375 187.14818359 391.875 186.1875 C391.153125 185.61128906 390.43125 185.03507812 389.6875 184.44140625 C387.96819872 182.99785551 387.96819872 182.99785551 385.875 183.1875 C385.545 182.1975 385.215 181.2075 384.875 180.1875 C383.53811328 179.2276839 382.18875333 178.28210719 380.79296875 177.41015625 C378.54898516 175.97967384 376.40978455 174.42962753 374.25 172.875 C369.48512136 169.51283222 364.53148232 166.60598036 359.44140625 163.765625 C356.875 162.1875 356.875 162.1875 355.3203125 160.58984375 C353.43941056 158.76486051 351.68000215 158.25858761 349.1875 157.5 C348.37925781 157.24863281 347.57101562 156.99726563 346.73828125 156.73828125 C346.12339844 156.55652344 345.50851562 156.37476563 344.875 156.1875 C344.875 155.5275 344.875 154.8675 344.875 154.1875 C340.06290099 151.89704986 340.06290099 151.89704986 334.875 151.1875 C334.875 150.5275 334.875 149.8675 334.875 149.1875 C332.565 148.5275 330.255 147.8675 327.875 147.1875 C327.875 146.5275 327.875 145.8675 327.875 145.1875 C327.19695312 144.95675781 326.51890625 144.72601563 325.8203125 144.48828125 C320.91685505 142.7700337 316.27309896 140.95325979 311.6875 138.5 C307.2034421 136.17572756 301.75592269 133.74703865 296.875 136.1875 Z " fill="#FEFEFE" transform="translate(462.125,232.8125)"/>
<path d="M0 0 C1.02917796 0.9699447 2.03358577 1.96750616 3 3 C4.36125 3.556875 4.36125 3.556875 5.75 4.125 C10.4882511 6.8586064 12.98720133 10.50439215 16 15 C16.58652344 15.80824219 17.17304687 16.61648438 17.77734375 17.44921875 C22.04247306 24.32360364 22.56518296 30.72537329 22.625 38.625 C22.6413147 40.07350342 22.6413147 40.07350342 22.65795898 41.55126953 C22.52262516 48.42107208 20.95338684 53.82281608 18 60 C17.69433105 60.64227539 17.38866211 61.28455078 17.07373047 61.94628906 C16.40512319 63.30886869 15.70690105 64.656888 15 66 C14.34 66 13.68 66 13 66 C12.01 67.98 12.01 67.98 11 70 C10.34 70 9.68 70 9 70 C8.773125 70.61875 8.54625 71.2375 8.3125 71.875 C6.62070165 74.61410209 5.00755839 75.05024472 2 76 C2 76.66 2 77.32 2 78 C-2.455 78.495 -2.455 78.495 -7 79 C-7 79.66 -7 80.32 -7 81 C-14.21378059 82.64364621 -21.76807212 82.56366008 -29 81 C-29 80.34 -29 79.68 -29 79 C-30.299375 78.979375 -31.59875 78.95875 -32.9375 78.9375 C-40.92977116 78.02158823 -46.02705176 72.45669624 -50.875 66.4375 C-58.40556761 56.52407162 -61.00962259 44.46160332 -59.64453125 32.17578125 C-58.10192168 24.5749232 -54.88482066 17.0639153 -50 11 C-49.34 11 -48.68 11 -48 11 C-48 10.34 -48 9.68 -48 9 C-47.34 9 -46.68 9 -46 9 C-45.67 8.01 -45.34 7.02 -45 6 C-42 4 -42 4 -39 4 C-39 3.34 -39 2.68 -39 2 C-37.60721983 1.34760842 -36.21060788 0.70339448 -34.8125 0.0625 C-34.03519531 -0.29714844 -33.25789062 -0.65679687 -32.45703125 -1.02734375 C-22.57318774 -4.94002584 -9.69194215 -4.16839282 0 0 Z " fill="#FEFEFE" transform="translate(820,469)"/>
<path d="M0 0 C0.68707031 0.23460937 1.37414062 0.46921875 2.08203125 0.7109375 C8.13231869 3.23285464 11.47944604 7.61019953 15 13 C16.07314453 14.60681641 16.07314453 14.60681641 17.16796875 16.24609375 C19.47289777 20.36362073 19.65407684 24.10185673 19.5625 28.75 C19.54497681 29.93698486 19.54497681 29.93698486 19.52709961 31.14794922 C19.1769324 40.49273837 16.44563669 47.05868627 9.5625 53.5 C2.70313969 59.05551496 -4.81694173 62.51625412 -13.82421875 62.25390625 C-20.5780869 61.46575288 -26.72348371 59.30452645 -32 55 C-32 54.34 -32 53.68 -32 53 C-32.99 52.67 -33.98 52.34 -35 52 C-35 51.34 -35 50.68 -35 50 C-35.99 49.67 -36.98 49.34 -38 49 C-43.84167204 41.59506361 -43.92766771 33.03255405 -43 24 C-42.01107587 19.80926771 -40.8889533 16.33342996 -38.5 12.75 C-38.0771875 12.10546875 -37.654375 11.4609375 -37.21875 10.796875 C-36.8165625 10.20390625 -36.414375 9.6109375 -36 9 C-35.34 8.01 -34.68 7.02 -34 6 C-33.34 6 -32.68 6 -32 6 C-31.67 5.01 -31.34 4.02 -31 3 C-22.33276601 -3.10072295 -9.74262562 -3.37744355 0 0 Z " fill="#FEFEFE" transform="translate(536,442)"/>
<path d="M0 0 C3.00169522 1.80636934 4.56910974 3.77483558 6.62890625 6.58203125 C7.45390625 7.32453125 8.27890625 8.06703125 9.12890625 8.83203125 C15.52599575 15.8688297 16.0721709 22.71817586 16.0625 32.03125 C15.59824252 35.83314233 14.50044027 38.27085568 12.62890625 41.58203125 C12.36078125 42.38640625 12.09265625 43.19078125 11.81640625 44.01953125 C10.07663221 47.77378049 7.69402952 50.80168716 4.62890625 53.58203125 C1.75390625 54.51953125 1.75390625 54.51953125 -0.37109375 54.58203125 C-0.37109375 55.24203125 -0.37109375 55.90203125 -0.37109375 56.58203125 C-11.34029413 60.61930639 -17.90537225 61.35247864 -28.6953125 56.546875 C-35.85839057 52.95925525 -41.31456264 47.90045533 -44.24609375 40.33203125 C-46.91616922 31.43177968 -47.91694822 24.02950508 -43.80859375 15.33203125 C-39.76478245 7.99608182 -35.19470278 2.84186835 -27.37109375 -0.41796875 C-26.31921875 -0.97484375 -25.26734375 -1.53171875 -24.18359375 -2.10546875 C-15.81901577 -5.53567946 -7.9939681 -3.35299594 0 0 Z " fill="#FEFEFE" transform="translate(596.37109375,516.41796875)"/>
</svg>
