<svg version="1.1" id="Layer_1" xmlns="http://www.w3.org/2000/svg" xmlns:xlink="http://www.w3.org/1999/xlink" x="0px" y="0px"
	 width="100%" viewBox="0 0 1080 1080" enable-background="new 0 0 1080 1080" xml:space="preserve">
<path fill="#5CA2FF" opacity="1.000000" stroke="none" 
	d="
M631.990906,234.824432 
	C642.905518,236.507965 653.776978,239.050369 664.748535,239.602478 
	C673.477234,240.041718 680.932129,243.273300 687.961304,247.256287 
	C696.500793,252.095093 703.410583,259.093506 708.041138,268.138672 
	C713.843628,279.473175 713.639099,291.256653 712.118774,303.444672 
	C710.498230,316.435333 704.785828,327.414215 697.776794,338.180908 
	C691.884949,347.231476 686.958557,356.934021 681.956726,366.531311 
	C679.069397,372.071381 681.108215,379.451324 686.352783,383.789703 
	C691.033691,387.661865 696.054260,391.122589 700.745361,394.983215 
	C708.977234,401.757782 717.229675,408.522217 725.181763,415.617889 
	C734.106628,423.581665 742.976318,431.644226 751.356445,440.168732 
	C757.016052,445.925812 761.787292,452.556152 766.626160,458.397827 
	C768.002075,457.363525 770.557373,456.275055 771.824341,454.342102 
	C776.620728,447.024780 780.882202,439.359467 785.565613,431.964783 
	C790.878418,423.575989 795.945374,414.964874 801.991272,407.122803 
	C810.761230,395.747498 819.517029,384.158661 829.756165,374.176178 
	C839.904175,364.282501 851.616211,355.899933 863.130676,347.526154 
	C875.826538,338.293304 889.489258,330.456787 904.622681,325.946472 
	C917.998535,321.959961 931.982239,319.950623 945.662476,323.219147 
	C965.722595,328.011932 979.923279,340.221893 988.176941,359.610748 
	C993.040161,371.034821 993.207153,382.361053 992.233643,394.385498 
	C991.058289,408.902527 986.246338,422.451050 982.801147,436.344604 
	C981.025757,443.504242 977.338501,450.197723 974.433105,457.067169 
	C971.358765,464.336334 968.438599,471.686798 964.986145,478.775330 
	C961.633118,485.659607 958.022156,492.467346 953.921204,498.925598 
	C948.985107,506.698944 943.779297,514.363525 938.008789,521.526245 
	C932.572876,528.273621 926.251526,534.307556 920.712952,540.234619 
	C928.155945,548.991882 936.308044,557.334167 942.968994,566.733154 
	C951.517456,578.795654 959.472595,591.379211 966.517151,604.370667 
	C971.090820,612.805359 973.625427,622.352966 976.995300,631.430969 
	C979.914307,639.294556 983.409363,647.029114 985.414795,655.126526 
	C988.212280,666.421997 990.243469,677.948914 991.845825,689.481934 
	C992.710938,695.708801 992.499146,702.203186 991.882935,708.489624 
	C991.007446,717.421753 987.458008,725.518616 982.337708,732.932678 
	C976.608032,741.229370 969.083984,747.812439 960.443298,752.464722 
	C953.656311,756.118958 945.791931,758.032166 938.194702,759.819885 
	C933.931274,760.822937 929.236511,759.920837 924.738953,760.014343 
	C910.091614,760.318604 896.784485,755.868408 884.216187,748.735657 
	C875.741028,743.925720 866.957764,739.576050 858.879578,734.172485 
	C850.860291,728.808228 843.245544,722.726685 836.024109,716.316711 
	C829.897339,710.878357 824.956360,704.105164 818.836487,698.657715 
	C804.700806,686.075134 794.963135,670.347839 785.651123,654.230835 
	C780.041748,644.522400 774.354309,634.858948 768.645813,625.208435 
	C768.168213,624.400940 767.262634,623.846558 767.791565,624.536804 
	C761.918274,629.817017 755.934448,634.980835 750.208252,640.416016 
	C745.969910,644.438904 742.227295,648.985413 737.974121,652.990967 
	C732.504883,658.141785 726.839783,663.096680 721.085205,667.928894 
	C715.285034,672.799438 709.305481,677.459167 703.345032,682.135437 
	C691.350403,691.545715 678.905334,700.437500 667.470276,710.481506 
	C661.755127,715.501343 657.331116,721.936768 654.714355,729.808472 
	C650.939941,741.162476 652.797241,752.041260 656.552490,762.235901 
	C659.164001,769.325806 663.267212,775.968506 664.213684,783.634521 
	C665.414062,793.358398 665.519775,802.850159 662.402527,812.622131 
	C656.429016,831.348328 642.522034,841.474426 625.750366,848.403442 
	C619.474426,850.996216 612.114624,851.377930 605.185364,851.868774 
	C597.226196,852.432678 589.196411,851.998230 581.197266,852.000000 
	C567.761597,852.002930 554.643494,850.026001 541.679504,846.425598 
	C534.529358,844.439758 527.063599,843.618591 519.819458,841.931763 
	C515.317749,840.883545 510.917480,839.328613 506.558655,837.759460 
	C502.676697,836.362061 498.913818,834.633728 495.099396,833.048950 
	C487.012299,829.688843 478.585571,826.959656 470.911896,822.830933 
	C456.154907,814.891052 441.711243,806.345154 427.377777,797.654480 
	C422.248901,794.544739 418.075745,789.866577 412.967468,786.712158 
	C409.719635,784.706665 405.625488,783.799927 401.783447,783.087585 
	C394.753662,781.784180 387.561218,781.324219 380.562622,779.895203 
	C372.560638,778.261169 364.639160,776.151733 356.785278,773.892395 
	C345.606262,770.676636 334.448120,767.353455 323.416901,763.669312 
	C313.608215,760.393555 303.852936,756.878845 294.314331,752.894409 
	C283.812988,748.507751 273.317322,743.963562 263.308838,738.577942 
	C251.435791,732.189148 239.847733,725.190186 228.583527,717.776001 
	C219.659210,711.901855 211.442123,704.958801 202.846115,698.577820 
	C198.692535,695.494568 194.127274,692.918335 190.217422,689.565552 
	C184.606186,684.753906 179.428207,679.437561 174.056793,674.345581 
	C167.565811,668.192139 160.783569,662.314941 154.648788,655.825317 
	C148.434189,649.251221 142.810287,642.113586 137.012299,635.152283 
	C131.494980,628.528015 126.007477,621.875793 120.647758,615.124023 
	C110.046135,601.768982 100.654816,587.741028 94.774559,571.506775 
	C90.256035,559.032043 87.504219,546.202454 89.254295,533.181763 
	C91.077103,519.619934 94.790489,506.343353 102.980637,494.810638 
	C108.102844,487.597992 112.573616,479.914154 117.836716,472.812317 
	C123.873749,464.666107 129.998077,456.493347 136.915909,449.111267 
	C149.166595,436.038483 161.867035,423.370361 174.731293,410.895905 
	C181.989197,403.857819 189.592789,397.067200 197.678909,391.018311 
	C209.274948,382.343781 221.335815,374.269806 233.421829,366.277618 
	C242.926208,359.992584 252.479050,353.669586 262.538177,348.364197 
	C273.864075,342.390625 285.694550,337.336395 297.472839,332.271301 
	C305.217865,328.940613 313.199860,326.125031 321.186493,323.403870 
	C327.251343,321.337524 333.488831,319.776855 339.653229,318.003998 
	C342.864349,317.080536 346.047699,316.021545 349.305725,315.307190 
	C359.243988,313.128113 369.155060,310.742310 379.182373,309.070862 
	C394.901123,306.450653 410.687042,304.202637 426.487030,302.119446 
	C431.074371,301.514587 435.810303,301.891754 440.472137,302.026367 
	C450.015381,302.302002 457.867889,298.935669 465.109650,292.631042 
	C470.399902,288.025421 476.917511,284.838470 482.844696,280.953064 
	C488.480194,277.258942 494.067902,273.491608 499.661835,269.734436 
	C514.199219,259.970520 530.389709,253.607681 546.562988,247.311386 
	C553.731445,244.520676 561.231689,242.363159 568.762390,240.779877 
	C577.179138,239.010315 585.808044,238.263214 594.330872,236.979263 
	C597.965027,236.431763 601.564209,235.651276 606.066406,234.937225 
	C615.299316,234.873306 623.645142,234.848877 631.990906,234.824432 
M950.998596,385.550903 
	C951.968079,371.540436 940.451416,361.278687 928.631836,363.101471 
	C923.944458,363.824371 919.214966,365.184418 914.882324,367.105865 
	C906.144226,370.981079 896.952026,374.431915 889.240662,379.886444 
	C876.749634,388.721832 864.534363,398.027130 853.945740,409.372833 
	C843.372192,420.702393 834.035889,432.917633 825.206604,445.549805 
	C820.888550,451.727600 817.263184,458.408234 813.572876,465.000427 
	C810.213806,471.000916 807.083252,477.136566 804.044983,483.307648 
	C799.426880,492.687469 795.773499,502.051025 784.991089,507.359467 
	C773.335938,513.097656 757.560486,511.003113 748.630005,500.232941 
	C746.189514,497.289673 743.628052,494.444489 741.069397,491.601715 
	C734.536865,484.343842 727.831482,477.236145 721.456848,469.842804 
	C711.262817,458.019592 700.261536,447.062317 687.922974,437.484131 
	C680.968567,432.085571 674.313416,426.173828 666.850586,421.588318 
	C656.116760,414.993011 648.217896,406.411896 643.979614,394.574005 
	C642.843323,391.400238 642.418518,387.971527 641.279907,384.798798 
	C639.258362,379.165985 638.086792,373.558594 639.992676,367.658264 
	C640.722534,365.398651 641.376709,363.112732 642.000610,360.821167 
	C643.353882,355.849884 643.800537,350.405457 646.163574,345.979736 
	C652.176147,334.718414 659.443054,324.124023 665.393250,312.833374 
	C668.484253,306.968109 670.357361,300.306580 671.812073,293.788605 
	C672.756287,289.557892 671.866943,284.868317 667.081482,282.637360 
	C663.355713,280.900330 659.570312,278.843842 655.600647,278.169006 
	C646.925171,276.694183 638.137146,275.459534 629.356384,275.115265 
	C611.668030,274.421875 594.348022,276.125916 577.206848,281.656860 
	C562.580078,286.376495 547.707458,290.072754 534.271301,297.898315 
	C525.777161,302.845551 516.705383,306.881012 508.556122,312.319580 
	C499.260437,318.523193 490.888123,326.094940 481.747192,332.552155 
	C476.947937,335.942322 471.594055,339.929565 466.089569,340.671570 
	C451.459595,342.643616 436.610992,342.988434 421.851379,344.009613 
	C419.401489,344.179077 416.945984,344.392578 414.520386,344.764038 
	C407.797668,345.793579 401.091064,346.927612 394.374939,348.000671 
	C387.973480,349.023468 381.522247,349.803864 375.186432,351.135590 
	C372.581390,351.683105 370.221039,353.394867 367.626495,354.635834 
	C370.735901,357.611115 373.510712,359.923859 375.876221,362.598633 
	C381.355682,368.794495 386.286285,375.510925 392.075317,381.390137 
	C402.596680,392.075409 409.899445,404.910431 417.219604,417.712799 
	C423.880554,429.362213 429.988037,441.346191 434.023315,454.229645 
	C437.419525,465.072571 441.643829,475.778839 443.710846,486.879059 
	C445.577362,496.902496 447.602875,506.948090 448.514404,517.282043 
	C449.754089,531.336121 449.568878,545.200989 448.957947,559.161316 
	C448.728394,564.407471 448.533997,569.724121 447.523102,574.850769 
	C446.067352,582.233582 444.098389,589.536743 441.958710,596.758362 
	C438.128723,609.684937 434.656647,622.775391 429.818054,635.328308 
	C425.391693,646.811646 419.973175,658.027161 413.867737,668.718689 
	C406.878815,680.957458 398.675049,692.504700 390.934753,704.310181 
	C389.653900,706.263794 388.113495,708.062073 386.574677,709.829102 
	C379.878357,717.518677 373.138275,725.170105 365.257751,734.153503 
	C376.946930,736.559509 387.726837,738.815002 398.523376,740.988037 
	C405.944885,742.481689 413.571747,743.256958 420.780701,745.433533 
	C431.405304,748.641296 440.016449,755.642151 448.754761,762.241211 
	C453.106720,765.527832 457.258606,769.211609 461.988922,771.836365 
	C470.715790,776.678589 479.716217,781.056824 488.763672,785.283813 
	C497.606079,789.414978 506.550201,793.370361 515.639771,796.915527 
	C521.579651,799.232178 527.850647,800.706299 533.987488,802.509521 
	C539.203186,804.042053 544.382202,805.765381 549.682068,806.926697 
	C555.071472,808.107544 560.583008,808.743286 566.051392,809.547485 
	C574.100037,810.731079 582.167603,811.788208 590.208923,813.018433 
	C598.279175,814.253052 605.567322,811.193970 612.999451,809.007019 
	C622.045166,806.345215 625.858582,795.107483 623.483826,789.021057 
	C621.512085,783.967590 618.838806,779.095154 617.578125,773.876343 
	C614.997803,763.194397 612.775757,752.388672 611.212158,741.517944 
	C610.637024,737.519653 612.500854,733.212280 612.968079,729.014282 
	C614.143005,718.456909 616.820984,708.388550 622.970215,699.601135 
	C626.362244,694.753845 630.151917,690.146301 634.113831,685.747314 
	C637.832825,681.618164 641.748291,677.580017 646.041870,674.070129 
	C659.902466,662.739929 674.210876,651.948914 687.897461,640.416931 
	C699.402893,630.722595 710.498901,620.511353 721.371216,610.105774 
	C731.193604,600.705200 740.236267,590.489014 750.074341,581.106018 
	C755.539429,575.893799 762.099182,571.124756 769.923950,571.189270 
	C784.719299,571.311157 793.264526,576.673096 800.040894,591.253235 
	C803.907288,599.572266 808.163269,607.716187 812.426086,615.843445 
	C815.629700,621.951233 819.473999,627.741028 822.416870,633.963867 
	C829.000977,647.886230 839.145752,659.254089 848.902161,670.787170 
	C854.937378,677.921326 862.458679,683.847900 869.603821,689.977356 
	C874.986206,694.594482 880.515808,699.192444 886.553833,702.851929 
	C893.257019,706.914734 900.734741,709.675354 907.651062,713.417358 
	C915.674744,717.758606 924.164917,720.341187 933.116211,718.823730 
	C941.228760,717.448486 948.553528,711.955261 950.151367,702.769897 
	C951.921753,692.592651 949.691772,682.949402 946.948486,673.579590 
	C943.531067,661.907227 940.338196,650.139526 935.199829,638.930786 
	C929.737549,627.015564 925.889465,614.345947 917.931213,603.669739 
	C911.543518,595.100586 905.355591,586.352356 898.479919,578.188110 
	C894.234619,573.147217 888.608398,569.293762 884.079346,564.460022 
	C880.044189,560.153442 875.677612,555.698853 873.210693,550.480713 
	C868.649048,540.831543 874.133911,524.215149 882.760681,517.582581 
	C886.193970,514.942993 889.582947,512.123413 892.464722,508.912506 
	C900.092041,500.413818 907.902283,492.009583 914.736023,482.890564 
	C920.179321,475.626862 924.836975,467.633209 928.841797,459.472107 
	C932.924316,451.152557 935.853271,442.259094 939.146851,433.563690 
	C940.614380,429.689423 941.558411,425.615417 943.051025,421.752228 
	C947.446594,410.375946 949.996643,398.606476 950.998596,385.550903 
M322.441864,371.903778 
	C321.009094,369.193787 318.862061,368.269958 316.019653,369.535583 
	C306.767212,373.655396 297.397003,377.544220 288.338440,382.056580 
	C278.956360,386.730072 269.720001,391.751404 260.724365,397.129822 
	C251.752792,402.493805 242.849167,408.075256 234.488556,414.327362 
	C226.539490,420.271729 219.298965,427.169830 211.806992,433.717316 
	C205.786301,438.978882 199.654922,444.137848 193.938644,449.717316 
	C187.662186,455.843628 181.779526,462.375549 175.776260,468.778564 
	C173.043457,471.693298 170.548859,474.837677 167.737854,477.671234 
	C164.312607,481.123901 160.280518,484.040649 157.217178,487.769409 
	C153.452301,492.352112 150.283264,497.449371 147.098328,502.477264 
	C142.623291,509.541779 138.023132,516.562683 134.107773,523.937378 
	C128.802780,533.929504 128.504791,544.071960 133.149475,554.809448 
	C137.051468,563.830017 141.369659,572.471741 146.979599,580.507812 
	C150.471252,585.509521 153.468155,590.914734 157.385712,595.548218 
	C164.595352,604.075439 172.294724,612.190369 179.837463,620.433716 
	C187.202515,628.482727 194.385178,636.720703 202.114746,644.406128 
	C206.842834,649.107300 212.651718,652.700500 217.624817,657.180237 
	C231.161118,669.373535 245.601028,680.335327 261.274689,689.605469 
	C270.028046,694.782593 278.966980,699.660889 287.960114,704.413086 
	C295.025818,708.146729 302.174408,711.785278 309.531616,714.883301 
	C314.326416,716.902405 319.808746,719.253540 324.515778,714.841919 
	C331.682281,708.125305 338.664490,701.186523 345.360199,694.002136 
	C349.719666,689.324463 353.661255,684.207458 357.384491,678.997375 
	C364.387360,669.197998 372.155457,659.739075 377.669342,649.132263 
	C385.125824,634.788391 391.156067,619.651123 397.027924,604.554565 
	C400.742279,595.004944 403.870361,585.062683 405.755615,575.014038 
	C407.530945,565.551331 407.664917,555.726379 407.897186,546.045776 
	C408.083008,538.300110 407.670013,530.498718 406.908386,522.782715 
	C406.045471,514.040161 404.520081,505.361908 403.234344,496.662842 
	C402.831268,493.935852 402.886932,490.912872 401.674042,488.574371 
	C397.100250,479.755707 395.398102,469.939026 391.541107,460.789703 
	C385.240021,445.842621 377.953064,431.654083 368.670349,418.572205 
	C359.681396,405.904358 350.622162,393.127380 337.563141,383.955475 
	C332.490540,380.392792 327.971497,376.042053 322.441864,371.903778 
z"/>
<path fill="#00FFFF" opacity="1.000000" stroke="none" 
	d="
M631.757812,234.465302 
	C623.645142,234.848877 615.299316,234.873306 606.489807,234.849182 
	C614.525574,234.569122 623.025146,234.337631 631.757812,234.465302 
z"/>
<path fill="#5CA2FF" opacity="1.000000" stroke="none" 
	d="
M526.000305,468.244934 
	C525.380981,461.822510 529.370850,457.670837 532.290283,453.417175 
	C542.452209,438.610901 562.182922,438.753235 574.815979,446.242065 
	C582.136414,450.581543 586.080811,458.642731 587.690186,467.315765 
	C590.622925,483.120300 582.422119,496.670990 568.037659,502.408417 
	C553.405334,508.244690 541.234192,503.069519 531.672058,491.843353 
	C528.548584,488.176422 527.466736,482.565338 526.133606,477.657990 
	C525.375732,474.868347 525.998596,471.703583 526.000305,468.244934 
z"/>
<path fill="#5CA2FF" opacity="1.000000" stroke="none" 
	d="
M507.092834,576.038025 
	C499.020691,578.828552 491.754395,577.009583 485.138672,573.229126 
	C481.287292,571.028320 477.183258,567.979126 475.090088,564.247498 
	C469.956543,555.095520 466.270203,545.914062 471.217560,534.501831 
	C473.839264,528.454163 477.427246,523.172974 481.918091,520.277588 
	C489.493225,515.393555 497.993011,511.387512 508.283661,516.229858 
	C513.844849,518.846741 518.963013,521.313049 523.250854,525.695251 
	C531.023621,533.639099 532.675781,548.598145 527.955200,558.778809 
	C523.680481,567.998047 516.444824,572.797119 507.092834,576.038025 
z"/>
<path fill="#5CA2FF" opacity="1.000000" stroke="none" 
	d="
M292.640686,469.282776 
	C303.223083,472.884338 310.910126,479.596802 315.377045,489.124512 
	C318.254395,495.261658 320.620026,502.302032 320.654907,508.950989 
	C320.705505,518.602600 318.116272,528.270447 311.465546,535.885132 
	C307.659058,540.243286 303.594788,545.529602 298.540436,547.385742 
	C290.063416,550.498718 281.265228,553.463379 271.439362,551.225830 
	C258.200623,548.210999 249.203613,540.829041 242.975296,529.136047 
	C237.732651,519.293518 238.126633,508.626495 239.412949,498.387421 
	C240.142044,492.583740 244.152451,486.758575 247.882050,481.853210 
	C256.430481,470.609894 268.351105,466.012177 282.356171,467.064423 
	C285.699554,467.315643 288.982330,468.373291 292.640686,469.282776 
z"/>
</svg>