<?xml version="1.0" encoding="UTF-8"?>
<svg version="1.1" xmlns="http://www.w3.org/2000/svg" width="1080" height="1080">
<path d="M0 0 C1.00804687 0.68964844 2.01609375 1.37929688 3.0546875 2.08984375 C8.72218446 6.07728118 8.72218446 6.07728118 11 8 C11 8.66 11 9.32 11 10 C11.721875 10.20625 12.44375 10.4125 13.1875 10.625 C16.97218384 12.47528988 18.52258653 14.60240438 21 18 C21 18.66 21 19.32 21 20 C21.99 20.33 22.98 20.66 24 21 C27 25.33333333 27 25.33333333 27 28 C27.66 28 28.32 28 29 28 C36.28751171 41.59853302 42.70352917 55.28704598 43 71 C43.05800781 72.86785156 43.05800781 72.86785156 43.1171875 74.7734375 C43.30434466 83.36819066 42.67765079 91.54135512 41 100 C40.86722656 100.71285156 40.73445312 101.42570312 40.59765625 102.16015625 C38.10592465 113.71704472 31.98425624 123.96189275 26 134 C25.34 134 24.68 134 24 134 C23.74605469 134.56589844 23.49210938 135.13179687 23.23046875 135.71484375 C15.80912076 149.49734715 -1.47501674 160.30047979 -15.6875 165.75 C-16.78449219 166.17796875 -17.88148438 166.6059375 -19.01171875 167.046875 C-22 168 -22 168 -26 168 C-26 191.43 -26 214.86 -26 239 C-19.58240234 238.98428955 -13.16480469 238.9685791 -6.55273438 238.95239258 C14.713234 238.90255749 35.97920475 238.8693422 57.24521637 238.84456348 C70.13160699 238.82914689 83.01794198 238.80815787 95.90429688 238.77368164 C107.14645093 238.74361886 118.38856466 238.72438724 129.63075781 238.71773452 C135.57394248 238.71385064 141.51701187 238.70483377 147.4601593 238.68280983 C153.07438299 238.66217688 158.68844585 238.65621928 164.30270386 238.66067696 C166.34380472 238.65986356 168.38491198 238.65405986 170.42597961 238.64238358 C189.13984753 238.54074081 208.09554663 239.85622275 226.25 244.6875 C227.23121826 244.94241211 228.21243652 245.19732422 229.22338867 245.45996094 C248.78154885 250.748768 268.54173925 259.27972237 284.86328125 271.4140625 C287.77699495 273.57670923 290.83117491 275.50269628 293.89453125 277.4453125 C296.53482625 279.39491808 298.70079015 281.65923817 301 284 C302.88927711 285.71558119 304.78546204 287.42357753 306.6875 289.125 C312.48716319 294.38332502 318.1125284 299.86903452 323 306 C323 306.66 323 307.32 323 308 C323.66 308 324.32 308 325 308 C325 308.99 325 309.98 325 311 C325.99 311.33 326.98 311.66 328 312 C329.71119929 314.28258081 331.27681546 316.54156645 332.8125 318.9375 C333.25899902 319.62336182 333.70549805 320.30922363 334.16552734 321.01586914 C335.45377743 323.00431608 336.7288447 325.00059505 338 327 C338.56332031 327.8765625 339.12664063 328.753125 339.70703125 329.65625 C345.73959168 339.36152629 351.70265463 349.92424181 354.4296875 361.08203125 C354.98628568 363.2985161 354.98628568 363.2985161 357 366 C357.50398597 367.88154763 357.99900104 369.7661842 358.4375 371.6640625 C359.02328939 374.09671565 359.72871963 376.47548313 360.4375 378.875 C364.93880265 395.77265833 365.40978777 412.06805287 365.29296875 429.4765625 C365.28854561 431.70206475 365.28549267 433.92757016 365.28381348 436.15307617 C365.26822724 444.3104324 365.22634418 452.46772137 365.1875 460.625 C365.125625 478.89875 365.06375 497.1725 365 516 C403.28 516 441.56 516 481 516 C481 607.74 481 699.48 481 794 C442.72 794 404.44 794 365 794 C365 861.98 365 929.96 365 1000 C91.1 1000 -182.8 1000 -465 1000 C-465 932.02 -465 864.04 -465 794 C-502.47254131 794.03961891 -502.47254131 794.03961891 -539.94506836 794.09008789 C-547.17687988 794.09460449 -547.17687988 794.09460449 -550.55763245 794.09544373 C-552.92925707 794.09698378 -555.30088089 794.10050994 -557.67250061 794.10557556 C-561.25555796 794.11284907 -564.83856728 794.11390755 -568.42163086 794.11352539 C-569.48602607 794.1171235 -570.55042128 794.12072161 -571.64707088 794.12442875 C-572.60565282 794.12305125 -573.56423475 794.12167376 -574.55186462 794.12025452 C-575.81149474 794.12163721 -575.81149474 794.12163721 -577.09657192 794.12304783 C-579 794 -579 794 -580 793 C-580.09675527 791.5195715 -580.12371762 790.03452727 -580.12304783 788.55094051 C-580.12503888 787.58404889 -580.12702993 786.61715727 -580.12908131 785.6209659 C-580.12616847 784.54608606 -580.12325563 783.47120623 -580.12025452 782.36375427 C-580.12110894 781.23175584 -580.12196337 780.09975742 -580.12284368 778.933456 C-580.12450178 775.10853507 -580.11897174 771.28365719 -580.11352539 767.45874023 C-580.112688 764.72956311 -580.11335704 762.00038685 -580.1139679 759.27120972 C-580.11449333 753.37913498 -580.11134451 747.48707128 -580.10573006 741.59499931 C-580.09761767 733.07595678 -580.09500011 724.55691961 -580.09374207 716.03787363 C-580.09155113 702.21771025 -580.08488993 688.39755276 -580.07543945 674.57739258 C-580.0662664 661.14900746 -580.05918505 647.72062394 -580.05493164 634.29223633 C-580.05453756 633.05153375 -580.05453756 633.05153375 -580.05413551 631.78576647 C-580.05283051 627.63644938 -580.05156679 623.48713228 -580.05032361 619.33781517 C-580.03994971 584.89187156 -580.02151072 550.4459389 -580 516 C-542.05 516 -504.1 516 -465 516 C-465.15758909 482.94444483 -465.15758909 482.94444483 -465.36035156 449.88916016 C-465.37841797 443.4050293 -465.37841797 443.4050293 -465.3817749 440.34188843 C-465.38780158 438.26299585 -465.40161887 436.18411458 -465.42230225 434.10531616 C-465.78884074 395.2231045 -457.13567269 360.22316309 -437.125 327 C-436.64844971 326.20352051 -436.17189941 325.40704102 -435.6809082 324.58642578 C-435.23191162 323.85665527 -434.78291504 323.12688477 -434.3203125 322.375 C-433.92086426 321.72273438 -433.52141602 321.07046875 -433.10986328 320.3984375 C-432.7436084 319.93695313 -432.37735352 319.47546875 -432 319 C-431.34 319 -430.68 319 -430 319 C-429.88527344 318.41734375 -429.77054688 317.8346875 -429.65234375 317.234375 C-428.95175938 314.83476865 -428.01807405 313.27139067 -426.5625 311.25 C-426.13066406 310.63640625 -425.69882812 310.0228125 -425.25390625 309.390625 C-424.84011719 308.93171875 -424.42632812 308.4728125 -424 308 C-423.34 308 -422.68 308 -422 308 C-422 307.34 -422 306.68 -422 306 C-421.34 306 -420.68 306 -420 306 C-420 305.01 -420 304.02 -420 303 C-418.625 301.3125 -418.625 301.3125 -417 300 C-416.34 300 -415.68 300 -415 300 C-414.74992188 299.41089844 -414.49984375 298.82179688 -414.2421875 298.21484375 C-412.83561753 295.70690295 -411.34445666 294.37575422 -409.125 292.5625 C-406.67337077 290.50401492 -404.79201667 288.73259287 -402.8125 286.1875 C-400.73714284 283.6827586 -399.07526379 282.93966394 -396 282 C-396 281.34 -396 280.68 -396 280 C-394.35 279.34 -392.7 278.68 -391 278 C-391 277.34 -391 276.68 -391 276 C-390.01 276 -389.02 276 -388 276 C-388 275.34 -388 274.68 -388 274 C-387.01 274 -386.02 274 -385 274 C-385 273.34 -385 272.68 -385 272 C-379.60212802 267.47451137 -373.10427754 264.42308564 -366.796875 261.39453125 C-364.0136265 260.06045553 -364.0136265 260.06045553 -361.5546875 258.484375 C-358.58783962 256.76051843 -355.59502388 255.61817542 -352.375 254.4375 C-348.89929993 253.1609557 -346.08737638 252.05825092 -343 250 C-339.01865256 248.69121452 -334.97081225 247.6326195 -330.92626953 246.53662109 C-329.14883806 246.04146338 -327.38412903 245.50122827 -325.62109375 244.95703125 C-298.83771578 237.00428762 -270.4657437 238.59334834 -242.84846759 238.69581819 C-236.86147775 238.71478285 -230.87448167 238.71635081 -224.88746643 238.71989441 C-213.59056289 238.72915748 -202.29374817 238.7536922 -190.99688345 238.78394288 C-178.11868945 238.8176673 -165.24049084 238.83401791 -152.36226356 238.84902918 C-125.90811538 238.88024797 -99.45408868 238.9351868 -73 239 C-73 215.57 -73 192.14 -73 168 C-74.98 167.67 -76.96 167.34 -79 167 C-81.02255579 166.26787694 -83.02373238 165.47417749 -85 164.625 C-86.03640625 164.18027344 -87.0728125 163.73554688 -88.140625 163.27734375 C-91.14678637 161.9344274 -94.08881991 160.53645616 -97 159 C-97 158.34 -97 157.68 -97 157 C-97.55171875 156.90589844 -98.1034375 156.81179687 -98.671875 156.71484375 C-101.62405565 155.8083856 -103.72721344 154.33656482 -106.25 152.5625 C-107.14203125 151.94503906 -108.0340625 151.32757813 -108.953125 150.69140625 C-109.96632813 149.85416016 -109.96632813 149.85416016 -111 149 C-111 148.34 -111 147.68 -111 147 C-111.66 147 -112.32 147 -113 147 C-114.625 145.625 -114.625 145.625 -116 144 C-116 143.34 -116 142.68 -116 142 C-116.99 141.67 -117.98 141.34 -119 141 C-119 140.34 -119 139.68 -119 139 C-119.66 139 -120.32 139 -121 139 C-122.5078125 137.1015625 -122.5078125 137.1015625 -124.125 134.625 C-124.66382813 133.81289062 -125.20265625 133.00078125 -125.7578125 132.1640625 C-127 130 -127 130 -127 128 C-127.66 128 -128.32 128 -129 128 C-130.66666667 124.66666667 -132.33333333 121.33333333 -134 118 C-134.50660156 117.06542969 -135.01320313 116.13085938 -135.53515625 115.16796875 C-137.24037638 111.48014602 -138.20470591 107.88003986 -139.125 103.9375 C-139.29386719 103.24333984 -139.46273438 102.54917969 -139.63671875 101.83398438 C-143.40100597 86.22849445 -144.20254416 68.38143491 -139 53 C-138.40251953 51.18242187 -138.40251953 51.18242187 -137.79296875 49.328125 C-135.85236273 43.67632981 -133.75456808 38.30894953 -131 33 C-130.34 33 -129.68 33 -129 33 C-128.87625 32.4225 -128.7525 31.845 -128.625 31.25 C-127.99351176 28.97664233 -127.11141809 27.0746471 -126 25 C-125.34 25 -124.68 25 -124 25 C-123.58041016 24.12408203 -123.58041016 24.12408203 -123.15234375 23.23046875 C-118.94196025 15.08087899 -112.43644194 9.24925313 -105 4 C-104.34 4 -103.68 4 -103 4 C-103 3.34 -103 2.68 -103 2 C-102.0821875 1.54109375 -101.164375 1.0821875 -100.21875 0.609375 C-99.33268066 0.16609863 -99.33268066 0.16609863 -98.42871094 -0.28613281 C-97.13561061 -0.93235561 -95.84198417 -1.57752664 -94.54785156 -2.22167969 C-91.8987776 -3.54154576 -89.25604639 -4.86434628 -86.640625 -6.25 C-60.961462 -19.8323672 -23.67927211 -16.40798437 0 0 Z M-80 45 C-80.66 45.639375 -81.32 46.27875 -82 46.9375 C-91.61615101 56.85415573 -95.50703327 67.40128176 -95.35107422 81.10180664 C-95.01953915 90.89368319 -91.97567865 99.17668811 -86 107 C-85.34 107 -84.68 107 -84 107 C-83.74863281 107.58652344 -83.49726563 108.17304688 -83.23828125 108.77734375 C-81.84531995 111.27764337 -80.35777594 112.70759876 -78.1875 114.5625 C-77.52105469 115.14128906 -76.85460937 115.72007812 -76.16796875 116.31640625 C-65.64402166 124.48905705 -52.50149473 125.24155603 -39.62109375 123.71875 C-32.96363029 122.3200102 -26.616106 118.74407066 -21 115 C-21 114.34 -21 113.68 -21 113 C-20.01 113 -19.02 113 -18 113 C-15.57286241 110.38148757 -15.57286241 110.38148757 -15 107 C-14.34 107 -13.68 107 -13 107 C-5.57477826 97.78586345 -3.27661965 86.59312196 -4 75 C-5.41354953 62.5405706 -10.71593025 52.44954663 -20 44 C-20.99 43.67 -21.98 43.34 -23 43 C-23 42.34 -23 41.68 -23 41 C-40.92655501 30.96588846 -64.67227214 28.68338647 -80 45 Z M-319 292 C-319.77692798 292.24390811 -320.55385595 292.48781621 -321.3543272 292.73911548 C-331.51978751 296.0123213 -340.69646205 300.81058939 -350 306 C-351.32815245 306.67692931 -352.65879433 307.34931606 -354 308 C-354 308.66 -354 309.32 -354 310 C-354.68449219 310.226875 -355.36898437 310.45375 -356.07421875 310.6875 C-359.74518186 312.33428719 -362.65392227 314.53511214 -365.8125 317 C-366.40998047 317.45117188 -367.00746094 317.90234375 -367.62304688 318.3671875 C-369.12347581 319.52637603 -370.56724504 320.75813919 -372 322 C-372 322.66 -372 323.32 -372 324 C-372.99 324.33 -373.98 324.66 -375 325 C-375 325.66 -375 326.32 -375 327 C-375.639375 327.268125 -376.27875 327.53625 -376.9375 327.8125 C-379.33131686 328.88667752 -379.33131686 328.88667752 -380 332 C-380.99 332.33 -381.98 332.66 -383 333 C-384.50849486 334.51817889 -384.50849486 334.51817889 -385.92578125 336.4296875 C-386.47234375 337.13730225 -387.01890625 337.84491699 -387.58203125 338.57397461 C-388.15308594 339.33331299 -388.72414063 340.09265137 -389.3125 340.875 C-389.89773438 341.64787354 -390.48296875 342.42074707 -391.0859375 343.21704102 C-395.31560947 348.88913048 -398.91393791 354.62551109 -402 361 C-402.42410156 361.79148437 -402.84820312 362.58296875 -403.28515625 363.3984375 C-406.95272664 370.32980906 -409.51873777 377.57338467 -412 385 C-412.30035156 385.87785156 -412.60070312 386.75570312 -412.91015625 387.66015625 C-417.44525329 401.67565717 -417.2824374 415.69332654 -417.24050903 430.25361633 C-417.24138207 432.51285274 -417.24313486 434.77208895 -417.24568737 437.03132409 C-417.25014553 443.2158364 -417.24217826 449.40027904 -417.23213124 455.58478248 C-417.22436669 461.57631259 -417.22605392 467.56783538 -417.22749493 473.5593685 C-417.23011676 485.80834455 -417.22346265 498.05729894 -417.21146011 510.30626869 C-417.19961242 522.42837952 -417.19192547 534.55048131 -417.18975449 546.67259789 C-417.18961701 547.42726326 -417.18947953 548.18192864 -417.18933788 548.95946267 C-417.18866118 552.79227068 -417.18805843 556.62507869 -417.18748413 560.45788672 C-417.18328707 587.58187527 -417.16982287 614.70585206 -417.15087891 641.82983398 C-417.13250025 668.17488543 -417.11833782 694.51993366 -417.10986328 720.86499023 C-417.10960023 721.67754087 -417.10933718 722.4900915 -417.10906615 723.32726488 C-417.10642904 731.48748275 -417.10387742 739.64770066 -417.10138843 747.80791858 C-417.09631647 764.430148 -417.09067396 781.05237721 -417.08468628 797.67460632 C-417.0844117 798.43881302 -417.08413712 799.20301971 -417.08385422 799.99038418 C-417.07541068 823.40678361 -417.0645497 846.82318105 -417.05130005 870.23957825 C-417.05055894 871.55108912 -417.04981782 872.86259999 -417.04905425 874.21385362 C-417.03406733 900.47590325 -417.01672947 926.73795143 -417 953 C-371.79 953 -326.58 953 -280 953 C-280 892.28 -280 831.56 -280 769 C-127.87 769 24.26 769 181 769 C181 829.72 181 890.44 181 953 C226.21 953 271.42 953 318 953 C318.0266429 912.0266043 318.0266429 912.0266043 318.05130005 871.0532074 C318.05169472 870.36252059 318.05208938 869.67183379 318.05249601 868.96021708 C318.06574943 845.70326103 318.07624943 822.44630459 318.08468628 799.18934631 C318.08496239 798.4301589 318.08523851 797.67097148 318.08552299 796.88877838 C318.09150923 780.38837039 318.09704954 763.88796228 318.10213066 747.38755399 C318.10462527 739.29539729 318.10721838 731.20324063 318.10986328 723.11108398 C318.1101248 722.30583032 318.11038632 721.50057665 318.11065576 720.67092135 C318.11917377 694.58478631 318.1341929 668.49865995 318.15259444 642.41253017 C318.17147485 615.59876424 318.18377442 588.78500311 318.18782998 561.97123064 C318.18840626 558.18130119 318.18905754 554.39137176 318.18975449 550.60144234 C318.18988933 549.85555242 318.19002418 549.10966251 318.19016311 548.34116987 C318.19252371 536.3492779 318.2017922 524.35740082 318.21366407 512.36551491 C318.22546007 500.30061803 318.22993057 488.23573585 318.22700275 476.1708334 C318.2256184 469.63747648 318.22768029 463.10415459 318.23841095 456.5708046 C318.24817215 450.58387845 318.24861626 444.597025 318.24179779 438.61009545 C318.24095556 436.4496799 318.24346818 434.28925973 318.24976636 432.12885319 C318.32319599 405.37497323 314.72838989 375.68016443 299 353 C298.34 353 297.68 353 297 353 C296.773125 352.32582031 296.54625 351.65164063 296.3125 350.95703125 C294.6363107 347.18061666 292.40895459 344.02906415 290 340.6875 C289.54882812 340.04232422 289.09765625 339.39714844 288.6328125 338.73242188 C287.47579063 337.11498745 286.24333423 335.55206756 285 334 C284.34 334 283.68 334 283 334 C283 333.34 283 332.68 283 332 C281.66666667 330.33333333 281.66666667 330.33333333 280 329 C279.34 329 278.68 329 278 329 C278 328.34 278 327.68 278 327 C276.66666667 325.33333333 276.66666667 325.33333333 275 324 C274.34 324 273.68 324 273 324 C272.67 323.01 272.34 322.02 272 321 C270.03326244 319.29959148 268.08182604 317.73366681 266 316.1875 C265.41130127 315.74390137 264.82260254 315.30030273 264.21606445 314.84326172 C257.73724969 309.99629898 251.26752807 305.40963174 243.94140625 301.92578125 C242.68519399 301.32674241 241.4414277 300.70054658 240.21484375 300.04296875 C233.75096497 296.59831148 226.98732842 294.15191657 220 292 C219.29593678 291.78058345 218.59187357 291.5611669 217.86647511 291.33510137 C196.4835744 285.04365752 174.10362134 286.28378366 152.05563426 286.34637666 C146.09641276 286.35779282 140.13726181 286.34017707 134.17805481 286.32647705 C123.20508498 286.30562305 112.23226435 286.30729609 101.25928684 286.32103439 C91.11821156 286.33366709 80.97718688 286.33687027 70.83610535 286.33092117 C70.16054182 286.33053925 69.4849783 286.33015732 68.78894315 286.32976382 C66.04585332 286.32820685 63.30276352 286.32661482 60.55967375 286.324965 C34.88505503 286.30970774 9.21052417 286.32347719 -16.46408097 286.35044949 C-39.21942786 286.37417334 -61.97463479 286.37205002 -84.72998047 286.34814453 C-110.3609365 286.32130737 -135.99181505 286.31079025 -161.62278318 286.32620585 C-164.36055722 286.32780917 -167.09833128 286.32937339 -169.83610535 286.33092117 C-170.84709443 286.33151425 -170.84709443 286.33151425 -171.87850754 286.33211931 C-182.00730872 286.33778034 -192.13605346 286.33120478 -202.2648468 286.31852341 C-213.79451134 286.30443986 -225.32400588 286.30842085 -236.85365117 286.33492713 C-242.72610896 286.34798677 -248.59828423 286.35335294 -254.47073936 286.33668137 C-287.11500973 285.83655803 -287.11500973 285.83655803 -319 292 Z M-533 563 C-533 623.72 -533 684.44 -533 747 C-510.56 747 -488.12 747 -465 747 C-465 686.28 -465 625.56 -465 563 C-487.44 563 -509.88 563 -533 563 Z M365 563 C365 623.72 365 684.44 365 747 C387.77 747 410.54 747 434 747 C434 686.28 434 625.56 434 563 C411.23 563 388.46 563 365 563 Z M-233 816 C-233 861.21 -233 906.42 -233 953 C-202.97 953 -172.94 953 -142 953 C-142 907.79 -142 862.58 -142 816 C-172.03 816 -202.06 816 -233 816 Z M-95 816 C-95 861.21 -95 906.42 -95 953 C-64.97 953 -34.94 953 -4 953 C-4 907.79 -4 862.58 -4 816 C-34.03 816 -64.06 816 -95 816 Z M43 816 C43 861.21 43 906.42 43 953 C73.03 953 103.06 953 134 953 C134 907.79 134 862.58 134 816 C103.97 816 73.94 816 43 816 Z " fill="#5CA1FE" transform="translate(590,47)"/>
<path d="M0 0 C0 0.66 0 1.32 0 2 C0.556875 2.08507812 1.11375 2.17015625 1.6875 2.2578125 C4.70890665 3.22752072 6.56618836 4.84929702 9 6.875 C12.58433957 9.84761236 12.58433957 9.84761236 16.3125 12.6328125 C16.869375 13.08398438 17.42625 13.53515625 18 14 C18 14.66 18 15.32 18 16 C18.556875 16.20625 19.11375 16.4125 19.6875 16.625 C22.97012371 18.57683032 24.70673246 20.94230994 27 24 C27 24.66 27 25.32 27 26 C27.66 26 28.32 26 29 26 C45.53518797 48.0327118 52.74992466 74.63959322 50 102 C47.95192923 115.86128941 44.04083342 128.84926266 37.25 141.125 C36.32960938 142.79949219 36.32960938 142.79949219 35.390625 144.5078125 C34.93171875 145.33023438 34.4728125 146.15265625 34 147 C33.34 147 32.68 147 32 147 C31.896875 147.5775 31.79375 148.155 31.6875 148.75 C30.89103535 151.35661158 29.80934723 152.9735311 28 155 C27.34 155 26.68 155 26 155 C26 155.99 26 156.98 26 158 C25.34 158 24.68 158 24 158 C23.67 158.99 23.34 159.98 23 161 C22.34 161 21.68 161 21 161 C21 161.66 21 162.32 21 163 C19.625 164.625 19.625 164.625 18 166 C17.34 166 16.68 166 16 166 C15.67 166.99 15.34 167.98 15 169 C12.4375 170.1875 12.4375 170.1875 10 171 C10 171.66 10 172.32 10 173 C7.525 173.99 7.525 173.99 5 175 C5 175.66 5 176.32 5 177 C-19.35076472 189.30983444 -19.35076472 189.30983444 -30 192 C-30.81082031 192.20753906 -31.62164062 192.41507813 -32.45703125 192.62890625 C-56.13849728 197.58710485 -80.53572249 193.48080061 -102 183 C-102.95648438 182.53464844 -103.91296875 182.06929687 -104.8984375 181.58984375 C-113.09646582 177.37337933 -120.14219673 171.88642199 -126.6328125 165.34765625 C-128.96434242 162.88506719 -128.96434242 162.88506719 -132 161 C-132 160.01 -132 159.02 -132 158 C-132.99 157.67 -133.98 157.34 -135 157 C-152.3048843 135.670724 -161.45883006 108.29976759 -158.7890625 80.82958984 C-157.02387315 64.95960153 -152.86020331 50.39214638 -144 37 C-143.38125 35.845 -142.7625 34.69 -142.125 33.5 C-136.23954712 23.20045747 -127.22079786 13.00534604 -117 7 C-115.99215723 6.00790477 -114.99221825 5.00772166 -114 4 C-79.79851708 -20.38011113 -36.14884063 -19.18101748 0 0 Z M-60.84375 33 C-71.1095145 33.53328647 -82.28326107 38.20049619 -90 45 C-90 45.66 -90 46.32 -90 47 C-90.99 47 -91.98 47 -93 47 C-96.65920703 50.45967217 -96.65920703 50.45967217 -98 55 C-98.66 55 -99.32 55 -100 55 C-110.46844619 68.04718366 -112.46736442 83.92682571 -111 100 C-109.83418005 107.67127326 -106.71071512 114.23857839 -103 121 C-102.34 121 -101.68 121 -101 121 C-101 121.99 -101 122.98 -101 124 C-100.34 124 -99.68 124 -99 124 C-98.76539063 124.56847656 -98.53078125 125.13695312 -98.2890625 125.72265625 C-92.30148782 136.30070485 -80.04658041 141.9960123 -68.953125 145.203125 C-67.97859375 145.46609375 -67.0040625 145.7290625 -66 146 C-65.36578125 146.1959375 -64.7315625 146.391875 -64.078125 146.59375 C-50.06180499 149.33378248 -36.23214767 145.84675522 -24 139 C-24 138.34 -24 137.68 -24 137 C-23.42894531 136.90589844 -22.85789062 136.81179688 -22.26953125 136.71484375 C-12.8356506 133.7434149 -6.2511241 122.31195026 -1.75 114.125 C4.61256477 100.35772623 4.8062214 85.38811561 0.203125 71.125 C-1.46768143 66.78524305 -3.45144928 62.88423694 -6 59 C-6.44859375 58.30648437 -6.8971875 57.61296875 -7.359375 56.8984375 C-8.50021286 55.21402395 -9.74160588 53.59850064 -11 52 C-11.66 52 -12.32 52 -13 52 C-13 51.34 -13 50.68 -13 50 C-14.33333333 48.33333333 -14.33333333 48.33333333 -16 47 C-16.66 47 -17.32 47 -18 47 C-18 46.34 -18 45.68 -18 45 C-30.06381724 34.11703259 -45.50392223 33 -60.84375 33 Z " fill="#5CA1FE" transform="translate(445,485)"/>
<path d="M0 0 C1.31790527 0.00612305 2.63581055 0.01224609 3.99365234 0.01855469 C13.70436386 0.17438637 22.01775247 1.26675597 31.1875 4.4375 C32.19554687 4.71464844 33.20359375 4.99179687 34.2421875 5.27734375 C43.29668387 7.8832134 51.13989053 12.65795529 59.1875 17.4375 C59.1875 18.0975 59.1875 18.7575 59.1875 19.4375 C59.909375 19.685 60.63125 19.9325 61.375 20.1875 C64.46356582 21.56019592 66.69761418 23.16103296 69.1875 25.4375 C69.1875 26.0975 69.1875 26.7575 69.1875 27.4375 C70.1775 27.7675 71.1675 28.0975 72.1875 28.4375 C72.1875 29.0975 72.1875 29.7575 72.1875 30.4375 C73.1775 30.4375 74.1675 30.4375 75.1875 30.4375 C75.55875 31.613125 75.55875 31.613125 75.9375 32.8125 C76.90429916 35.53623976 76.90429916 35.53623976 79.0625 36.375 C82.23745523 37.96247761 83.43320785 40.43014204 85.1875 43.4375 C85.1875 44.0975 85.1875 44.7575 85.1875 45.4375 C85.8475 45.4375 86.5075 45.4375 87.1875 45.4375 C97.52630582 63.65139621 104.76842573 80.96512492 104.63354492 102.26611328 C104.6250324 104.30474075 104.65393499 106.34055258 104.68554688 108.37890625 C104.73575079 117.99975636 103.05019433 126.25259849 100.1875 135.4375 C99.72053711 137.06099365 99.72053711 137.06099365 99.24414062 138.71728516 C96.82991459 147.04578041 92.66372894 154.08753207 88.1875 161.4375 C87.70796875 162.25863281 87.2284375 163.07976562 86.734375 163.92578125 C84.29616656 168.02289733 81.70074354 171.16379579 78.1875 174.4375 C75.84818456 176.83784106 73.5102322 179.23945826 71.17578125 181.64453125 C69.1875 183.4375 69.1875 183.4375 67.1875 183.4375 C67.1875 184.0975 67.1875 184.7575 67.1875 185.4375 C65.54296875 186.9453125 65.54296875 186.9453125 63.375 188.5625 C62.66730469 189.10132813 61.95960938 189.64015625 61.23046875 190.1953125 C59.1875 191.4375 59.1875 191.4375 56.1875 191.4375 C56.1875 192.0975 56.1875 192.7575 56.1875 193.4375 C52.88035056 195.15965616 49.54100406 196.80756085 46.1875 198.4375 C44.66382813 199.19353516 44.66382813 199.19353516 43.109375 199.96484375 C20.21708208 210.62440668 -7.72196581 211.996833 -31.8125 204.4375 C-34.87796925 203.23161041 -37.84742526 201.87082802 -40.8125 200.4375 C-41.45243896 200.13086426 -42.09237793 199.82422852 -42.75170898 199.50830078 C-44.52904148 198.64493675 -46.29596535 197.76024775 -48.0625 196.875 C-49.22265625 196.29621094 -50.3828125 195.71742188 -51.578125 195.12109375 C-57.29830786 192.14355895 -57.29830786 192.14355895 -59.8125 190.4375 C-59.8125 189.7775 -59.8125 189.1175 -59.8125 188.4375 C-60.8025 188.4375 -61.7925 188.4375 -62.8125 188.4375 C-62.8125 187.7775 -62.8125 187.1175 -62.8125 186.4375 C-63.616875 186.0971875 -63.616875 186.0971875 -64.4375 185.75 C-67.63710161 183.98179911 -70.10287223 181.90079797 -72.8125 179.4375 C-72.8125 178.7775 -72.8125 178.1175 -72.8125 177.4375 C-73.369375 177.23125 -73.92625 177.025 -74.5 176.8125 C-77.78262371 174.86066968 -79.51923246 172.49519006 -81.8125 169.4375 C-81.8125 168.7775 -81.8125 168.1175 -81.8125 167.4375 C-82.4725 167.4375 -83.1325 167.4375 -83.8125 167.4375 C-83.8125 166.4475 -83.8125 165.4575 -83.8125 164.4375 C-84.4725 164.4375 -85.1325 164.4375 -85.8125 164.4375 C-87.85419485 161.53201118 -88.8125 160.03607954 -88.8125 156.4375 C-89.4725 156.4375 -90.1325 156.4375 -90.8125 156.4375 C-104.92118011 128.1231729 -108.02014872 98.0091616 -98.10546875 67.6953125 C-94.4160799 58.39939014 -89.31197787 48.07542145 -82.8125 40.4375 C-82.1525 40.4375 -81.4925 40.4375 -80.8125 40.4375 C-80.8125 39.4475 -80.8125 38.4575 -80.8125 37.4375 C-78.4375 34.75 -78.4375 34.75 -75.8125 32.4375 C-75.1525 32.4375 -74.4925 32.4375 -73.8125 32.4375 C-73.8125 31.7775 -73.8125 31.1175 -73.8125 30.4375 C-72.1728279 29.07110658 -70.50139872 27.7425581 -68.8125 26.4375 C-68.1834375 25.80070312 -67.554375 25.16390625 -66.90625 24.5078125 C-49.99617828 7.78703263 -23.08909863 -0.18327027 0 0 Z M-32.9375 58.0625 C-33.51870605 58.45896729 -34.09991211 58.85543457 -34.69873047 59.26391602 C-36.11136126 60.26585875 -37.4679755 61.34586412 -38.8125 62.4375 C-38.8125 63.0975 -38.8125 63.7575 -38.8125 64.4375 C-39.69615234 64.79521484 -39.69615234 64.79521484 -40.59765625 65.16015625 C-48.42662218 69.67527417 -53.22831123 81.76907455 -55.5625 90.12109375 C-58.78942194 105.56101886 -56.02342076 119.18706252 -49.8125 133.4375 C-49.1525 133.4375 -48.4925 133.4375 -47.8125 133.4375 C-47.626875 134.0975 -47.44125 134.7575 -47.25 135.4375 C-41.57672996 147.27736791 -28.77935595 155.10980832 -16.8125 159.4375 C-5.08907321 163.10227008 7.69646897 162.51496262 19.1875 158.4375 C20.01636719 158.17066406 20.84523438 157.90382813 21.69921875 157.62890625 C29.77490297 154.77642752 38.51825271 149.83432739 43.1875 142.4375 C43.1875 141.7775 43.1875 141.1175 43.1875 140.4375 C44.1775 140.1075 45.1675 139.7775 46.1875 139.4375 C48.4648501 136.62240007 48.4648501 136.62240007 48.1875 133.4375 C48.8475 133.4375 49.5075 133.4375 50.1875 133.4375 C58.20404078 119.61587797 59.2432629 102.73157796 55.1875 87.4375 C53.43354641 82.22042101 51.46252687 76.90344574 48.1875 72.4375 C47.5275 72.4375 46.8675 72.4375 46.1875 72.4375 C46.1875 71.4475 46.1875 70.4575 46.1875 69.4375 C45.5275 69.4375 44.8675 69.4375 44.1875 69.4375 C43.960625 68.880625 43.73375 68.32375 43.5 67.75 C41.81199964 64.77590412 39.72073483 62.71741135 37.1875 60.4375 C36.5275 60.4375 35.8675 60.4375 35.1875 60.4375 C35.1875 59.7775 35.1875 59.1175 35.1875 58.4375 C25.52176081 52.92472099 16.48580005 47.88399639 5.1875 47.4375 C4.00027344 47.37755859 4.00027344 47.37755859 2.7890625 47.31640625 C-10.59178307 46.95761386 -21.96751155 50.57076421 -32.9375 58.0625 Z " fill="#5CA1FE" transform="translate(689.8125,470.5625)"/>
</svg>
